<?xml version="1.0" standalone="no"?><!DOCTYPE svg PUBLIC "-//W3C//DTD SVG 1.1//EN" "http://www.w3.org/Graphics/SVG/1.1/DTD/svg11.dtd"><svg t="1725358872970" class="icon" viewBox="0 0 1024 1024" version="1.1" xmlns="http://www.w3.org/2000/svg" p-id="23966" xmlns:xlink="http://www.w3.org/1999/xlink" width="200" height="200"><path d="M512 1024C229.660444 1024 0 794.311111 0 512S229.688889 0 512 0s512 229.688889 512 512-229.688889 512-512 512z m0-955.733333C267.349333 68.266667 68.266667 267.377778 68.266667 512c0 244.679111 199.082667 443.733333 443.733333 443.733333 244.679111 0 443.733333-199.054222 443.733333-443.733333 0-244.622222-199.054222-443.733333-443.733333-443.733333z" fill="#7F7F92" p-id="23967"></path><path d="M498.773333 639.601778s127.516444 102.172444 239.587556-145.379556c0 0-236.458667-45.056-239.587556 145.351111z m10.24-134.769778C616.846222 294.627556 479.516444 256 479.516444 256s116.508444 52.565333 6.257778 230.855111C518.570667 336.952889 312.888889 292.664889 312.888889 292.664889c3.896889 225.991111 114.119111 232.903111 150.755555 228.949333-67.783111 108.373333-48.071111 193.109333-19.342222 245.418667a2022.599111 2022.599111 0 0 1 73.585778-0.796445c-38.684444-52.963556-70.912-140.686222-8.903111-261.404444z" fill="#7F7F92" p-id="23968"></path></svg>