<?xml version="1.0" standalone="no"?><!DOCTYPE svg PUBLIC "-//W3C//DTD SVG 1.1//EN" "http://www.w3.org/Graphics/SVG/1.1/DTD/svg11.dtd"><svg t="1725358834748" class="icon" viewBox="0 0 1024 1024" version="1.1" xmlns="http://www.w3.org/2000/svg" p-id="23355" xmlns:xlink="http://www.w3.org/1999/xlink" width="200" height="200"><path d="M512 1024C229.660444 1024 0 794.311111 0 512S229.688889 0 512 0s512 229.688889 512 512-229.688889 512-512 512z m0-955.733333C267.349333 68.266667 68.266667 267.377778 68.266667 512c0 244.679111 199.082667 443.733333 443.733333 443.733333 244.679111 0 443.733333-199.054222 443.733333-443.733333 0-244.622222-199.054222-443.733333-443.733333-443.733333z" fill="#7F7F92" p-id="23356"></path><path d="M492.032 352.256L443.534222 256.284444s-15.303111 24.234667 2.929778 57.457778c18.147556 33.194667 45.568 38.485333 45.568 38.485334z m-2.787556-60.899556c-17.066667-33.820444-45.710222-35.043556-45.710222-35.043555l51.655111 94.321778s11.150222-25.486222-5.973333-59.278223z m-176.924444 261.404445l-39.224889-73.415111s-11.377778 19.000889 3.271111 44.401778c14.677333 25.400889 35.982222 29.013333 35.982222 29.013333z" fill="#7F7F92" p-id="23357"></path><path d="M309.134222 505.656889c-13.824-25.884444-36.039111-26.254222-36.039111-26.254222l41.671111 72.049777s8.163556-19.939556-5.632-45.795555z m226.588445-226.360889s-19.256889 5.205333-25.656889 30.72c-6.4 25.571556 5.091556 41.130667 5.091555 41.130667l20.565334-71.850667z" fill="#7F7F92" p-id="23358"></path><path d="M542.520889 318.634667c7.253333-25.258667-6.855111-39.395556-6.855111-39.395556l-18.147556 72.419556c0.056889 0.056889 17.806222-7.736889 25.002667-32.995556z m-189.696 167.082666s-19.456 4.352-26.965333 29.582223c-7.509333 25.201778 3.271111 41.301333 3.271111 41.301333l23.694222-70.883556z m5.12 39.68c8.334222-24.945778-5.063111-39.68-5.063111-39.68l-21.333334 71.594667c-0.085333 0 18.005333-6.968889 26.368-31.914667z m374.385778-210.005333c7.253333-25.287111-6.826667-39.424-6.826667-39.424l-18.176 72.448c0 0.056889 17.777778-7.765333 25.031111-33.024zM725.475556 275.968s-19.256889 5.205333-25.656889 30.748444c-6.4 25.543111 5.12 41.102222 5.12 41.102223l20.536889-71.850667z m-27.477334 79.416889l-46.051555-48.526222s-4.750222 17.123556 12.032 33.735111c16.696889 16.497778 34.019556 14.791111 34.019555 14.791111z m-12.515555-35.84c-16.213333-17.123556-33.536-12.771556-33.536-12.771556l47.616 47.047111s2.076444-17.152-14.108445-34.275555z m27.875555 37.404444s10.439111 9.642667 29.639111 7.025778c19.171556-2.616889 24.547556-16.156444 24.547556-16.156444l-54.215111 9.102222z m25.884445-17.351111c-19.057778 3.271111-26.168889 15.530667-26.168889 15.530667l54.471111-7.395556c0 0.085333-9.216-11.320889-28.273778-8.106666z m-83.569778 137.073778c-4.494222-13.738667-15.217778-15.900444-15.217778-15.900444l14.051556 38.627555c-0.056889 0 5.603556-8.988444 1.166222-22.755555z m-17.493333 5.973333c4.949333 13.624889 14.961778 17.208889 14.961777 17.208889l-12.743111-39.082666s-7.168 8.248889-2.218666 21.902222z m51.399111 26.055111c14.506667-0.853333 19.256889-10.666667 19.256889-10.666666l-41.016889 3.783111s7.253333 7.736889 21.76 6.883555z m-1.393778-18.346666c-14.421333 1.28-20.48 10.097778-20.48 10.097778l41.130667-2.417778s-6.200889-8.988444-20.650667-7.68z m-3.384889-14.478222c6.997333-14.392889 0-24.348444 0-24.348445l-18.488889 41.614222c0.085333 0 11.491556-2.844444 18.488889-17.265777z" fill="#7F7F92" p-id="23359"></path><path d="M666.254222 467.285333c-6.542222 14.648889-1.223111 25.201778-1.223111 25.201778l19.825778-40.96s-12.145778 1.109333-18.602667 15.758222z m-233.443555-50.887111c3.868444 10.638222 11.690667 13.368889 11.690666 13.368889l-9.927111-30.435555s-5.603556 6.456889-1.763555 17.066666z" fill="#7F7F92" p-id="23360"></path><path d="M446.407111 411.733333c-3.470222-10.695111-11.889778-12.401778-11.889778-12.401777l10.894223 30.094222c0.085333 0 4.522667-7.025778 0.995555-17.692445z m26.368 24.945778c11.292444-0.654222 15.018667-8.334222 15.018667-8.334222l-31.914667 2.929778c0 0.056889 5.688889 6.115556 16.896 5.404444z" fill="#7F7F92" p-id="23361"></path><path d="M471.722667 422.4c-11.207111 1.052444-15.928889 7.879111-15.928889 7.879111l32-1.877333s-4.835556-7.054222-16.071111-5.973334z m-17.095111-17.976889c-5.034667 11.377778-0.995556 19.626667-0.995556 19.626667l15.416889-31.943111c0.085333 0.085333-9.329778 0.910222-14.421333 12.316444z m14.506666 6.712889c5.404444-11.207111 0-18.944 0-18.944l-14.364444 32.369778s8.931556-2.218667 14.364444-13.425778z m-168.476444 10.951111c-16.668444 4.693333-19.655111 17.379556-19.655111 17.379556l46.876444-14.904889c-0.056889 0-10.581333-7.168-27.221333-2.474667z m6.4 21.105778c16.497778-5.290667 21.276444-17.066667 21.276444-17.066667l-47.331555 13.368889s9.528889 8.903111 26.055111 3.697778z m22.641778-34.417778l-1.024-49.038222s-11.093333 6.968889-10.126223 24.234667c0.910222 17.265778 11.150222 24.832 11.150223 24.832z m10.922666-25.6c-0.341333-17.237333-11.889778-23.381333-11.889778-23.381333l2.616889 49.009778c-0.085333-0.085333 9.585778-8.362667 9.272889-25.6z m-39.566222 4.124445c-16.924444-8.988444-29.127111-1.137778-29.127111-1.137778l48.924444 23.921778s-2.901333-13.795556-19.797333-22.784z m-11.093333 21.76c17.208889 8.391111 30.094222 2.588444 30.094222 2.588444l-48.128-25.457778s0.768 14.449778 18.005333 22.869334z m158.776889-27.022223c25.998222 1.479111 39.111111-12.060444 39.111111-12.060444l-73.528889-6.656c0-0.056889 8.504889 17.123556 34.417778 18.688z m2.673777-32.142222c-25.884444-2.332444-37.091556 13.368889-37.091555 13.368889l73.728 4.266667s-10.752-15.274667-36.636445-17.635556z m-166.627555 229.546667c21.418667 1.251556 32.199111-9.955556 32.199111-9.955556l-60.586667-5.461333s7.025778 14.136889 28.387556 15.416889z m2.161778-26.510222c-21.361778-1.934222-30.577778 11.008-30.577778 11.008l60.814222 3.584s-8.903111-12.629333-30.236444-14.592z" fill="#7F7F92" p-id="23362"></path><path d="M528.355556 563.484444c16.782222-43.633778 45.112889-79.587556 94.492444-102.456888 36.039111-16.668444 62.549333-44.743111 78.336-81.806223 3.128889-7.367111 6.343111-14.933333 5.888-24.035555-5.12 2.076444-5.347556 5.717333-7.054222 8.391111-1.763556 2.816-3.128889 5.802667-4.892445 8.533333-33.109333 50.432-83.968 73.358222-139.292444 89.372445-7.822222 2.275556-9.671111-1.763556-10.325333-8.647111a148.764444 148.764444 0 0 0-20.224-64c-6.542222-10.922667-12.999111-22.328889-24.945778-29.496889-0.654222 1.905778-1.422222 2.872889-1.166222 3.584 1.223111 4.039111 2.673778 8.021333 4.152888 11.946666 15.928889 41.472 15.758222 82.574222-0.512 123.221334-15.217778 4.693333-34.076444-5.063111-51.569777-15.900445h-0.085334a155.079111 155.079111 0 0 1-20.679111-10.012444c10.808889-9.841778 23.438222-25.998222 20.167111-46.705778 0 0-20.366222 39.139556-31.203555 39.651556-0.142222 0-0.284444 0.085333-0.483556 0.085333a247.637333 247.637333 0 0 1-9.728-6.542222c-17.038222-8.590222-21.674667-28.501333-38.968889-43.349334-18.944-16.213333-46.648889 0-46.648889 0 4.778667 3.128889 8.817778 1.706667 28.245334 3.128889 19.370667 1.422222 19.825778 23.182222 41.642666 48.839111 13.084444 15.36 49.692444 31.772444 76.913778 42.467556 0 0 0.085333 0 0.142222 0.056889 0.056889 0 0.056889 0.085333 0.142223 0.085333 1.962667 0.768 15.644444 6.769778 17.237333 20.963556a1945.088 1945.088 0 0 1-45.852444 90.083555c-4.096 7.68-9.528889 10.496-18.005334 10.410667-34.019556-0.256-60.871111-13.852444-80.839111-41.358222-6.883556-9.443556-11.52-19.996444-17.635555-30.208-2.759111 7.480889-2.161778 14.592-0.597334 21.902222 6.087111 28.302222 24.348444 48.071111 48.384 61.269333 34.816 19.143111 60.728889 45.482667 76.600889 81.749334 2.161778 4.949333 4.892444 9.045333 11.235556 9.045333 27.733333-0.056889 55.438222 0 83.171555 0 0.540444-1.024 1.137778-2.076444 1.649778-3.128889-18.033778-4.807111-25.742222-18.147556-30.236444-34.247111a154.083556 154.083556 0 0 1-4.323556-66.844445c0.654222-4.096 1.393778-8.135111 2.104889-12.174222 2.275556-14.250667 14.961778-23.523556 23.495111-28.16 2.56-1.137778 5.176889-2.389333 7.907556-3.697778 45.710222-21.76 118.727111-60.842667 119.694222-89.230222 0 0-51.057778 42.154667-109.056 57.969778-11.292444 2.844444-20.224 6.058667-27.306667 9.244444z" fill="#7F7F92" p-id="23363"></path></svg>