<?xml version="1.0" standalone="no"?><!DOCTYPE svg PUBLIC "-//W3C//DTD SVG 1.1//EN" "http://www.w3.org/Graphics/SVG/1.1/DTD/svg11.dtd"><svg t="1725358861698" class="icon" viewBox="0 0 1024 1024" version="1.1" xmlns="http://www.w3.org/2000/svg" p-id="23818" xmlns:xlink="http://www.w3.org/1999/xlink" width="200" height="200"><path d="M512 1024C229.660444 1024 0 794.311111 0 512S229.688889 0 512 0s512 229.688889 512 512-229.688889 512-512 512z m0-955.733333C267.349333 68.266667 68.266667 267.377778 68.266667 512c0 244.679111 199.082667 443.733333 443.733333 443.733333 244.679111 0 443.733333-199.054222 443.733333-443.733333 0-244.622222-199.054222-443.733333-443.733333-443.733333z" fill="#7F7F92" p-id="23819"></path><path d="M547.100444 587.52s27.733333-19.114667 57.258667-5.404444c31.345778 14.620444 47.644444 44.515556 47.644445 44.515555s-37.148444 9.955556-68.892445-1.649778c-27.022222-9.756444-36.010667-37.461333-36.010667-37.461333zM400.981333 382.350222s17.635556 29.297778 24.803556 96.995556c7.196444 67.697778 13.596444 140.344889 12.600889 268.316444-2.673778 19.569778 25.315556 21.959111 41.528889 17.578667 16.213333-4.380444 31.004444-7.253333 30.919111-11.576889-0.967111-52.48-19.342222-134.314667-35.043556-203.690667-18.432-81.436444-46.250667-170.552889-56.775111-175.786666-10.524444-5.233778-18.033778 8.163556-18.033778 8.163555z" fill="#7F7F92" p-id="23820"></path><path d="M603.761778 487.054222A238.819556 238.819556 0 0 1 568.888889 538.197333c-31.118222 34.816-43.946667 43.150222-95.203556 82.915556-8.504889 5.290667-2.218667 14.705778 3.697778 18.318222 5.973333 3.640889 10.951111 7.338667 12.629333 5.973333 20.650667-16.725333 51.854222-44.088889 75.434667-72.675555 26.567111-32.142222 46.876444-77.795556 46.193778-82.659556-0.682667-4.864-7.879111-3.015111-7.879111-3.015111z m-251.335111 10.353778c8.049778 12.288 17.635556 23.495111 28.558222 33.28 24.632889 22.129778 34.332444 27.022222 73.528889 51.029333 6.428444 3.072 2.702222 10.183111-1.194667 13.198223-3.896889 3.043556-7.111111 6.001778-8.419555 5.148444-15.872-10.183111-39.964444-27.022222-58.794667-45.312-21.219556-20.565333-39.082667-51.143111-39.025778-54.613333 0.085333-3.498667 5.347556-2.730667 5.347556-2.730667zM408.576 396.231111s-3.413333-69.034667 53.816889-105.443555c60.871111-38.769778 132.352-34.645333 132.352-34.645334s-23.352889 75.377778-79.132445 118.129778c-47.502222 36.352-107.036444 21.959111-107.036444 21.959111z" fill="#7F7F92" p-id="23821"></path><path d="M417.393778 397.141333s-39.424 16.440889-72.675556-9.841777c-35.384889-27.932444-48.071111-71.111111-48.071111-71.111112s48.753778-1.934222 85.390222 22.186667c31.203556 20.48 35.356444 58.766222 35.356445 58.766222z m-66.446222 107.150223s-18.033778-11.719111-16.782223-32.881778c1.308444-22.471111 15.416889-39.822222 15.416889-39.822222s14.734222 19.626667 15.388445 41.585777c0.483556 18.688-14.023111 31.118222-14.023111 31.118223z" fill="#7F7F92" p-id="23822"></path><path d="M353.706667 497.891556s-7.480889 29.496889-36.608 37.205333c-31.004444 8.248889-60.871111-2.986667-60.871111-2.986667S275.911111 503.466667 305.208889 492.913778c24.945778-8.988444 48.469333 4.977778 48.469333 4.977778z m248.490666-2.56s22.328889-33.109333 61.468445-30.008889c41.585778 3.299556 73.244444 30.122667 73.244444 30.122666s-36.977778 26.680889-77.596444 26.993778c-34.616889 0.312889-57.116444-27.107556-57.116445-27.107555z" fill="#7F7F92" p-id="23823"></path><path d="M605.582222 498.574222s-21.959111-5.603556-27.733333-27.392c-6.087111-23.153778 2.275556-45.539556 2.275555-45.539555s21.304889 14.791111 29.184 36.693333c6.684444 18.659556-3.697778 36.238222-3.697777 36.238222z" fill="#7F7F92" p-id="23824"></path></svg>