<?xml version="1.0" standalone="no"?><!DOCTYPE svg PUBLIC "-//W3C//DTD SVG 1.1//EN" "http://www.w3.org/Graphics/SVG/1.1/DTD/svg11.dtd"><svg t="1725358826454" class="icon" viewBox="0 0 1024 1024" version="1.1" xmlns="http://www.w3.org/2000/svg" p-id="23209" xmlns:xlink="http://www.w3.org/1999/xlink" width="200" height="200"><path d="M512 1024C229.660444 1024 0 794.311111 0 512S229.688889 0 512 0s512 229.688889 512 512-229.688889 512-512 512z m0-955.733333C267.349333 68.266667 68.266667 267.377778 68.266667 512c0 244.679111 199.082667 443.733333 443.733333 443.733333 244.679111 0 443.733333-199.054222 443.733333-443.733333 0-244.622222-199.054222-443.733333-443.733333-443.733333z" fill="#7F7F92" p-id="23210"></path><path d="M453.404444 750.478222s-19.683556-54.670222-60.871111-76.999111c-41.187556-22.328889-65.905778-48.184889-63.544889-92.273778 0 0 22.357333 82.289778 107.662223 73.472 0 0 70.001778-127.402667 72.362666-157.724444 2.360889-30.350222 8.817778-46.222222-15.303111-103.253333 0 0 42.382222 31.089778 45.312 102.257777 0 0 122.396444-24.661333 153.6-108.686222 0 0-4.152889 68.323556-92.387555 109.681778-88.263111 41.358222-101.205333 167.708444-95.345778 197.688889 5.888 29.980444 10.609778 52.309333 41.187555 55.836444h-92.643555z" fill="#7F7F92" p-id="23211"></path><path d="M407.239111 581.205333s18.944-3.982222 29.582222 7.196445c3.555556 3.697778 6.200889 9.102222 6.883556 16.896 2.787556 31.146667-14.108444 35.271111-14.108445 35.271111s-39.765333-2.816-41.187555-34.076445c-1.422222-31.288889 18.830222-25.287111 18.830222-25.287111zM458.922667 412.672c6.257778 2.446222 22.471111-14.848 22.471111-14.848s-51.2-30.549333-96.512 12.942222c0 0 15.303111 9.386667 23.523555 15.274667 8.248889 5.888 52.366222 33.507556 72.96-4.693333l-22.442666-8.675556zM486.684444 368.440889s-50.631111 24.120889-65.336888-25.258667c-14.705778-49.379556-34.133333-75.832889-45.312-80.497778 0 0 51.2-21.191111 105.329777 14.677334 54.129778 35.84 24.718222 84.024889 24.718223 84.024889s-15.303111-28.188444-34.702223-37.006223c0 0 21.162667 28.785778 15.274667 44.088889zM512.739556 377.201778s10.552889-40.192 38.058666-38.257778c27.477333 1.934222 39.964444 3.185778 44.942222-0.056889 0 0-3.868444 88.803556-75.491555 54.129778 0 0 24.718222-16.355556 27.761778-25.799111 0 0-25.543111 15.274667-35.271111 9.984zM559.957333 479.004444s37.745778 0.824889 40.533334-29.127111c2.759111-29.952-21.930667-36.323556-35.271111-29.952-13.312 6.371556-32.711111 32.796444-6.371556 59.079111M622.705778 355.555556s28.017778 50.773333 39.139555 49.664c11.093333-1.109333 20.821333-16.355556 15.815111-26.624-5.006222-10.24-38.030222-22.755556-54.954666-23.04zM685.312 275.2s51.256889 27.875556 52.849778 58.026667c1.564444 30.094222-19.285333 44.999111-30.634667 47.189333 0 0-0.455111-32.938667-8.618667-44.259556 0 0 4.323556 28.757333-8.817777 37.831112 0 0-26.339556-6.570667-20.878223-31.032889 5.432889-24.462222 19.285333-29.696 16.099556-67.754667zM703.345778 401.066667s8.305778 35.299556 42.581333 20.878222c34.247111-14.421333 17.720889-8.704 17.720889-8.704s-18.545778-44.600889-56.945778-25.998222c0 0 11.975111 9.955556 16.924445 11.605333 0 0-16.213333 4.408889-20.280889 2.190222zM332.515556 462.506667s-48.241778 30.549333-50.631112 71.68c-2.332444 41.130667 30.037333 41.728 30.037334 41.728s2.104889 0.426667 5.404444 0.568889c-0.597333-1.564444-4.124444-12.288 1.194667-35.896889 0 0 3.612444 22.954667 13.653333 34.503111 10.126222-2.702222 20.650667-9.955556 22.698667-27.960889 4.124444-36.437333-28.245333-51.143111-22.357333-84.650667z" fill="#7F7F92" p-id="23212"></path><path d="M296.248889 590.791111s14.136889-1.251556 21.845333-6.883555c-4.380444-2.446222-44.828444-23.608889-62.065778 20.821333 0 0 16.668444 26.794667 45.880889 14.677333 17.976889-7.452444 20.110222-19.057778 19.086223-26.908444-1.365333 0.398222-10.24 2.56-24.746667-1.706667zM340.224 588.117333c3.612444-3.527111 12.430222-11.406222 21.048889-14.250666 0 0-14.364444 9.728-19.399111 15.331555 5.546667 1.621333 23.779556 6.001778 36.892444-2.474666 16.440889-10.638222 15.530667-25.486222 17.863111-37.831112 0 0-52.565333 0-56.405333 39.224889z" fill="#7F7F92" p-id="23213"></path></svg>