<?xml version="1.0" standalone="no"?><!DOCTYPE svg PUBLIC "-//W3C//DTD SVG 1.1//EN" "http://www.w3.org/Graphics/SVG/1.1/DTD/svg11.dtd"><svg t="1725358840461" class="icon" viewBox="0 0 1024 1024" version="1.1" xmlns="http://www.w3.org/2000/svg" p-id="23505" xmlns:xlink="http://www.w3.org/1999/xlink" width="200" height="200"><path d="M512 1024C229.660444 1024 0 794.311111 0 512S229.688889 0 512 0s512 229.688889 512 512-229.688889 512-512 512z m0-955.733333C267.349333 68.266667 68.266667 267.377778 68.266667 512c0 244.679111 199.082667 443.733333 443.733333 443.733333 244.679111 0 443.733333-199.054222 443.733333-443.733333 0-244.622222-199.054222-443.733333-443.733333-443.733333z" fill="#7F7F92" p-id="23506"></path><path d="M652.373333 640.170667c-4.664889 0-9.500444-0.711111-14.222222-2.56-12.487111-4.892444-21.390222-16.583111-26.510222-34.730667a1.792 1.792 0 0 1 1.137778-2.161778c0.967111-0.284444 19.427556-5.916444 34.133333 0.597334-5.006222-3.612444-13.198222-6.428444-26.339556-4.152889a1.763556 1.763556 0 0 1-1.536-2.986667c0.483556-0.483556 12.003556-12.288 27.249778-9.187556 14.336 2.958222 26.595556 17.92 36.551111 44.572445a1.706667 1.706667 0 0 1-0.739555 2.104889c-0.768 0.455111-14.193778 8.504889-29.724445 8.504889z" fill="#7F7F92" p-id="23507"></path><path d="M615.509333 603.591111c4.864 16.071111 12.913778 26.368 23.893334 30.691556 16.298667 6.428444 34.645333-2.275556 39.566222-4.864-9.358222-24.519111-20.622222-38.286222-33.450667-40.96-8.021333-1.649778-15.018667 1.592889-19.399111 4.465777 12.259556-0.796444 19.854222 3.015111 24.177778 6.684445a22.926222 22.926222 0 0 1 7.196444 10.211555 1.792 1.792 0 0 1-0.853333 2.048 1.706667 1.706667 0 0 1-2.161778-0.455111c-10.951111-13.624889-32.796444-9.329778-38.968889-7.822222zM716.088889 619.747556c-3.015111 0-6.115556-0.341333-9.244445-1.137778-12.487111-3.328-22.385778-13.511111-29.297777-30.407111a1.735111 1.735111 0 0 1 0.853333-2.275556c0.938667-0.398222 17.521778-7.623111 32.227556-3.356444-5.205333-2.759111-13.198222-4.266667-25.059556-0.796445a1.792 1.792 0 0 1-1.962667-0.711111 1.706667 1.706667 0 0 1 0.056889-2.048c0.398222-0.568889 10.154667-13.112889 25.144889-11.804444 14.08 1.251556 27.505778 14.250667 40.021333 38.684444a1.735111 1.735111 0 0 1-0.483555 2.218667c-0.654222 0.540444-15.246222 11.662222-32.256 11.662222z" fill="#7F7F92" p-id="23508"></path><path d="M681.500444 588.515556c6.428444 14.791111 15.274667 23.751111 26.254223 26.680888 16.298667 4.323556 32.796444-5.944889 37.262222-9.045333-11.662222-22.414222-23.950222-34.332444-36.465778-35.470222-7.736889-0.711111-14.023111 3.043556-17.863111 6.257778 11.576889-1.991111 19.171556 0.824889 23.694222 3.783111 5.831111 3.868444 7.964444 8.789333 8.049778 8.988444 0.341333 0.768 0.056889 1.649778-0.654222 2.161778a1.763556 1.763556 0 0 1-2.218667-0.199111c-11.918222-11.747556-32.227556-5.319111-38.058667-3.157333zM320.938667 620.060444c-6.200889 0-13.027556-0.568889-20.48-1.621333a1.706667 1.706667 0 0 1-1.507556-1.649778c-0.056889-1.109333-1.052444-27.164444 15.900445-41.358222 10.24-8.590222 24.775111-10.808889 43.207111-6.627555a1.820444 1.820444 0 0 1 1.336889 2.076444c-0.199111 0.995556-4.067556 19.825778-16.839112 29.582222 5.575111-2.616889 11.946667-8.448 16.241778-21.048889a1.792 1.792 0 0 1 1.649778-1.194666c0.768 0 1.422222 0.483556 1.678222 1.194666 0.199111 0.654222 5.063111 16.440889-4.977778 28.273778-6.940444 8.305778-19.114667 12.373333-36.209777 12.373333z" fill="#7F7F92" p-id="23509"></path><path d="M302.478222 615.196444c26.055111 3.498667 43.548444 0.284444 51.996445-9.699555 5.347556-6.286222 5.831111-13.966222 5.404444-19.143111-5.205333 11.150222-12.202667 15.928889-17.464889 17.976889-6.741333 2.616889-12.174222 1.450667-12.430222 1.422222a1.820444 1.820444 0 0 1-1.422222-1.763556 1.706667 1.706667 0 0 1 1.479111-1.706666c17.180444-3.072 23.893333-24.263111 25.486222-30.435556-16.440889-3.413333-29.354667-1.336889-38.4 6.257778-13.511111 11.292444-14.592 31.516444-14.648889 37.091555zM399.303111 665.6a2.048 2.048 0 0 1-0.910222-0.284444c-0.910222-0.540444-22.385778-13.738667-24.661333-34.958223-1.336889-12.856889 4.693333-25.685333 17.976888-38.172444a1.735111 1.735111 0 0 1 2.446223 0.028444c0.711111 0.711111 13.368889 13.653333 14.648889 28.842667 0.682667-5.831111-0.711111-13.795556-8.220445-23.665778a1.706667 1.706667 0 0 1-0.028444-2.048 1.848889 1.848889 0 0 1 1.962666-0.711111c0.654222 0.199111 15.872 4.778667 19.996445 19.256889 3.896889 13.568-3.498667 30.805333-21.873778 51.143111a2.048 2.048 0 0 1-1.336889 0.568889z" fill="#7F7F92" p-id="23510"></path><path d="M392.817778 595.939556c-11.52 11.320889-16.782222 22.755556-15.616 34.019555 1.763556 16.725333 17.265778 28.501333 21.788444 31.573333 16.782222-18.915556 23.523556-34.645333 20.110222-46.734222-2.104889-7.509333-7.879111-12.032-12.231111-14.421333 6.058667 10.097778 6.144 18.176 4.949334 23.466667-1.507556 6.769778-5.404444 10.524444-5.546667 10.695111a1.706667 1.706667 0 0 1-2.190222 0.142222 1.706667 1.706667 0 0 1-0.625778-2.161778c6.684444-15.217778-6.542222-31.914667-10.666667-36.579555zM707.242667 530.688a1.763556 1.763556 0 0 1-1.706667-1.422222 91.136 91.136 0 0 1-0.910222-24.177778c1.137778-12.202667 4.920889-22.300444 11.008-29.696-1.137778 0.853333-2.360889 1.820444-3.555556 2.986667-8.846222 8.476444-13.027556 22.044444-12.032 39.281777a1.792 1.792 0 0 1-1.109333 1.763556 1.792 1.792 0 0 1-1.991111-0.512c-0.654222-0.739556-15.616-18.944-8.704-40.049778 6.485333-19.911111 29.980444-34.986667 69.745778-44.999111a1.763556 1.763556 0 0 1 1.991111 0.938667c0.170667 0.369778 4.152889 8.988444 6.371555 21.105778 2.048 11.320889 2.844444 27.847111-4.949333 42.496-8.931556 16.952889-27.107556 27.790222-53.902222 32.284444h-0.256z" fill="#7F7F92" p-id="23511"></path><path d="M725.617778 467.057778c0.682667 0 1.336889 0.455111 1.649778 1.137778 0.284444 0.768 0 1.621333-0.711112 2.076444-22.528 14.279111-19.000889 48.554667-17.806222 56.604444 24.689778-4.437333 41.386667-14.592 49.635556-30.122666 12.430222-23.466667 1.763556-52.650667-0.910222-59.164445-20.309333 5.205333-36.352 11.832889-47.559112 19.768889-9.386667 6.627556-15.559111 14.222222-18.261333 22.528-4.266667 13.141333 0.995556 25.400889 4.778667 31.886222 0.199111-19.370667 7.253333-30.293333 13.368889-36.124444 7.452444-7.025778 15.189333-8.419556 15.502222-8.533333l0.284444-0.056889zM385.621333 495.957333c-4.323556 0-8.874667-0.597333-13.482666-1.991111-25.144889-7.708444-44.714667-36.977778-58.140445-86.840889a1.792 1.792 0 0 1 0.938667-2.076444c0.455111-0.199111 11.235556-5.376 26.453333-8.391111 14.193778-2.787556 34.986667-4.152889 53.617778 5.233778 21.532444 10.865778 35.555556 33.422222 41.756444 67.072a1.820444 1.820444 0 0 1-1.365333 2.076444c-0.568889 0.085333-14.023111 2.901333-30.435555 1.649778-16.839111-1.308444-30.520889-6.570667-40.163556-15.36 1.422222 2.275556 3.299556 4.835556 5.774222 7.281778 11.008 11.093333 28.444444 16.128 50.403556 14.449777a1.848889 1.848889 0 0 1 1.735111 1.052445 1.763556 1.763556 0 0 1-0.426667 2.019555c-0.910222 0.768-16.355556 13.824-36.693333 13.824z" fill="#7F7F92" p-id="23512"></path><path d="M317.752889 407.665778c7.054222 25.770667 15.928889 46.023111 26.254222 60.188444 8.647111 11.832889 18.488889 19.512889 29.127111 22.755556 17.92 5.489778 34.304-2.702222 42.040889-7.68-25.400889 0.568889-39.68-8.192-47.331555-15.957334-8.931556-9.159111-10.894222-18.773333-11.008-19.143111a1.792 1.792 0 0 1 1.052444-1.991111 1.763556 1.763556 0 0 1 2.133333 0.682667c8.789333 13.368889 23.978667 20.992 45.056 22.641778 12.629333 1.024 23.722667-0.540444 27.818667-1.251556-6.144-31.488-19.427556-52.650667-39.537778-62.805333-17.720889-8.931556-37.632-7.623111-51.256889-4.977778-11.776 2.332444-21.020444 6.087111-24.348444 7.537778zM673.251556 453.688889a1.763556 1.763556 0 0 1-1.706667-1.422222c-0.056889-0.312889-1.621333-8.476444-0.654222-18.318223 0.739556-7.879111 2.958222-14.620444 6.428444-19.939555-5.034667 4.778667-9.898667 13.511111-9.016889 29.383111a1.792 1.792 0 0 1-1.080889 1.763556 1.792 1.792 0 0 1-2.019555-0.512c-0.512-0.568889-11.861333-14.449778-6.656-30.549334 4.949333-15.104 22.755556-26.624 52.878222-34.133333a1.763556 1.763556 0 0 1 1.991111 0.938667c0.512 1.109333 12.344889 27.022222 1.080889 48.270222-6.798222 12.885333-20.593778 21.162667-40.903111 24.519111h-0.341333z" fill="#7F7F92" p-id="23513"></path><path d="M687.075556 404.963556c0.711111 0 1.365333 0.455111 1.649777 1.109333 0.312889 0.796444 0 1.649778-0.682666 2.104889-16.355556 10.353778-14.193778 35.015111-13.283556 41.699555 18.204444-3.356444 30.520889-10.837333 36.608-22.357333 9.045333-17.123556 1.621333-38.4-0.568889-43.861333-27.960889 7.196444-44.373333 17.777778-48.867555 31.459555-2.929778 8.874667 0.085333 17.237333 2.816 22.300445 0.512-13.767111 5.632-21.617778 10.211555-25.912889 5.688889-5.404444 11.605333-6.485333 11.861334-6.542222h0.256zM402.801778 386.161778a1.536 1.536 0 0 1-0.995556-0.341334 69.12 69.12 0 0 1-13.027555-12.913777 43.576889 43.576889 0 0 1-8.96-19.000889c-0.398222 6.940444 2.019556 16.696889 13.539555 27.648 0.568889 0.483556 0.711111 1.336889 0.398222 1.991111a1.706667 1.706667 0 0 1-1.820444 1.024c-0.739556-0.113778-18.545778-2.474667-25.742222-17.806222-6.741333-14.421333-1.649778-34.958222 15.189333-61.041778a1.735111 1.735111 0 0 1 2.161778-0.654222c1.109333 0.455111 27.477333 11.320889 33.792 34.531555 3.84 14.051556-0.568889 29.496889-13.084445 45.795556a1.848889 1.848889 0 0 1-1.422222 0.768z" fill="#7F7F92" p-id="23514"></path><path d="M382.008889 340.195556c0.227556 0 0.483556 0.056889 0.739555 0.142222 0.739556 0.369778 1.137778 1.223111 0.938667 1.991111-4.835556 18.773333 13.596444 35.299556 18.830222 39.537778 11.008-14.904889 14.819556-28.814222 11.406223-41.358223-5.12-18.716444-25.031111-29.155556-30.435556-31.630222-15.473778 24.376889-20.252444 43.377778-14.165333 56.376889 3.982222 8.504889 11.861333 12.515556 17.294222 14.392889-9.045333-10.410667-10.666667-19.655111-10.325333-25.884444a24.860444 24.860444 0 0 1 4.238222-12.856889 1.848889 1.848889 0 0 1 1.450666-0.711111zM304.071111 535.04c-3.925333 0-8.135111-0.739556-12.401778-2.759111-14.336-6.883556-23.438222-26.026667-26.908444-56.888889a1.706667 1.706667 0 0 1 1.194667-1.848889c1.137778-0.341333 28.444444-8.647111 48.071111 5.319111 11.889778 8.448 18.261333 23.182222 18.915555 43.776a1.735111 1.735111 0 0 1-1.649778 1.792c-0.341333 0-8.647111 0.512-18.261333-1.735111a43.889778 43.889778 0 0 1-18.944-9.016889c4.067556 5.632 12.117333 11.633778 27.989333 12.8a1.706667 1.706667 0 0 1 1.564445 1.336889 1.792 1.792 0 0 1-0.739556 1.905778c-0.512 0.284444-8.618667 5.319111-18.830222 5.319111z" fill="#7F7F92" p-id="23515"></path><path d="M268.430222 476.501333c3.470222 28.700444 11.804444 46.364444 24.775111 52.565334 8.476444 4.067556 17.123556 2.161778 22.471111 0.142222-13.568-2.304-20.707556-8.419556-24.376888-13.511111-4.551111-6.314667-4.864-12.344889-4.920889-12.600889a1.706667 1.706667 0 0 1 1.365333-1.763556 1.763556 1.763556 0 0 1 1.991111 0.938667c8.163556 17.607111 32.853333 18.716444 39.651556 18.659556-0.910222-18.488889-6.741333-31.658667-17.351111-39.196445-15.786667-11.207111-37.888-6.684444-43.605334-5.233778zM480.568889 437.276444a28.216889 28.216889 0 0 1-12.117333-2.673777c-14.449778-6.741333-23.694222-25.770667-27.591112-56.519111a1.792 1.792 0 0 1 1.223112-1.905778c1.137778-0.369778 28.359111-8.96 48.128 4.835555 11.975111 8.334222 18.517333 22.954667 19.370666 43.491556a1.706667 1.706667 0 0 1-1.592889 1.820444c-0.369778 0-8.618667 0.568889-18.318222-1.564444a43.349333 43.349333 0 0 1-19.000889-8.817778c4.124444 5.603556 12.259556 11.491556 28.103111 12.515556 0.739556 0.056889 1.422222 0.568889 1.621334 1.336889a1.706667 1.706667 0 0 1-0.768 1.905777 37.034667 37.034667 0 0 1-19.057778 5.575111z" fill="#7F7F92" p-id="23516"></path><path d="M444.586667 379.164444c3.783111 28.615111 12.288 46.193778 25.315555 52.337778 8.448 3.982222 17.152 1.991111 22.471111-0.056889-13.568-2.275556-20.764444-8.305778-24.462222-13.312a24.803556 24.803556 0 0 1-5.063111-12.572444 1.735111 1.735111 0 0 1 3.328-0.853333c8.305778 17.493333 33.052444 18.346667 39.822222 18.232888-1.080889-18.488889-7.082667-31.573333-17.749333-39.025777-15.928889-11.064889-37.916444-6.286222-43.633778-4.721778zM633.656889 426.154667a1.763556 1.763556 0 0 1-1.507556-0.853334c-0.455111-0.739556-8.391111-14.051556-6.997333-27.477333-1.422222 4.977778-1.422222 11.918222 2.616889 21.333333a1.763556 1.763556 0 0 1-0.455111 2.019556 1.735111 1.735111 0 0 1-2.048 0.227555c-0.568889-0.312889-13.226667-7.765333-13.738667-21.617777-0.483556-12.970667 9.870222-26.794667 30.72-40.96 0.711111-0.455111 1.678222-0.398222 2.218667 0.199111 0.711111 0.711111 17.009778 17.208889 14.392889 36.636444-1.564444 11.804444-9.756444 21.959111-24.348445 30.264889a1.706667 1.706667 0 0 1-0.853333 0.227556z" fill="#7F7F92" p-id="23517"></path><path d="M631.495111 384.455111a1.706667 1.706667 0 0 1 1.308445 0.597333c0.568889 0.654222 0.597333 1.564444 0.113777 2.218667-9.216 12.003556-1.28 29.496889 1.450667 34.673778 12.629333-7.537778 19.712-16.526222 21.048889-26.794667 2.048-15.104-8.988444-28.785778-12.401778-32.597333-18.972444 13.169778-28.359111 25.6-27.904 37.091555a22.215111 22.215111 0 0 0 7.338667 15.018667c-2.958222-10.040889-1.308444-17.180444 0.853333-21.560889a20.423111 20.423111 0 0 1 7.338667-8.391111 1.308444 1.308444 0 0 1 0.853333-0.256zM477.496889 362.040889a23.466667 23.466667 0 0 1-11.52-2.901333c-11.377778-6.257778-17.863111-22.272-19.256889-47.445334a1.735111 1.735111 0 0 1 1.308444-1.792c0.938667-0.256 23.523556-5.688889 38.826667 6.627556 9.301333 7.424 13.767111 19.683556 13.312 36.465778 0 0.967111-0.796444 1.706667-1.735111 1.706666h-0.056889c-1.137778 0-16.440889-0.142222-27.107555-8.163555 3.470222 3.754667 9.443556 7.395556 19.626666 8.732444a1.763556 1.763556 0 0 1 1.479111 1.422222 1.706667 1.706667 0 0 1-0.853333 1.848889 30.72 30.72 0 0 1-14.023111 3.498667z" fill="#7F7F92" p-id="23518"></path><path d="M450.332444 313.002667c1.450667 23.04 7.310222 37.489778 17.351112 43.008 5.973333 3.271111 12.316444 2.673778 16.668444 1.507555-10.183111-2.645333-15.416889-7.736889-18.062222-11.889778-3.470222-5.432889-3.413333-10.410667-3.413334-10.609777a1.706667 1.706667 0 0 1 1.422223-1.706667 1.763556 1.763556 0 0 1 1.991111 1.109333c5.518222 14.051556 24.576 16.327111 30.464 16.668445 0.056889-14.677333-3.982222-25.372444-12.060445-31.857778-11.861333-9.472-29.326222-7.111111-34.360889-6.229333zM287.232 462.222222a23.466667 23.466667 0 0 1-11.52-2.901333c-11.377778-6.257778-17.863111-22.243556-19.256889-47.416889a1.735111 1.735111 0 0 1 1.308445-1.820444c0.938667-0.256 23.523556-5.688889 38.826666 6.627555 9.301333 7.452444 13.767111 19.712 13.312 36.494222 0 0.938667-0.796444 1.706667-1.735111 1.706667-0.853333 0-16.412444-0.056889-27.164444-8.192 3.470222 3.811556 9.443556 7.395556 19.626666 8.732444a1.763556 1.763556 0 0 1 1.479111 1.422223 1.706667 1.706667 0 0 1-0.853333 1.848889c-0.284444 0.256-6.371556 3.527111-14.023111 3.527111z" fill="#7F7F92" p-id="23519"></path><path d="M260.067556 413.240889c1.450667 23.04 7.338667 37.489778 17.351111 43.008a22.471111 22.471111 0 0 0 16.668444 1.507555c-10.183111-2.588444-15.416889-7.736889-18.062222-11.889777-3.470222-5.432889-3.413333-10.410667-3.413333-10.609778a1.706667 1.706667 0 0 1 1.422222-1.706667 1.763556 1.763556 0 0 1 1.991111 1.109334c5.518222 14.051556 24.576 16.327111 30.464 16.668444 0.056889-14.648889-4.010667-25.372444-12.060445-31.857778-11.946667-9.472-29.326222-7.168-34.360888-6.229333zM573.354667 408.064a1.792 1.792 0 0 1-1.251556-0.540444 126.947556 126.947556 0 0 1-19.313778-27.534223c-8.846222-17.038222-11.832889-33.365333-8.817777-47.843555a45.824 45.824 0 0 0-4.067556 10.865778c-4.010667 16.867556 1.507556 36.209778 15.928889 55.864888a1.706667 1.706667 0 0 1 0 2.076445 1.735111 1.735111 0 0 1-1.991111 0.654222 68.750222 68.750222 0 0 1-17.095111-8.704c-11.861333-8.135111-19.854222-18.944-23.096889-31.203555-7.480889-27.989333 8.448-63.345778 47.445333-105.073778a1.763556 1.763556 0 0 1 2.218667-0.284445c0.426667 0.284444 11.548444 7.338667 23.324444 19.854223 10.922667 11.605333 24.348444 30.236444 26.396445 53.191111 2.360889 26.481778-10.609778 52.764444-38.456889 78.193777a1.621333 1.621333 0 0 1-1.223111 0.483556z" fill="#7F7F92" p-id="23520"></path><path d="M549.176889 320.142222c0.341333 0 0.682667 0.113778 1.052444 0.369778a1.706667 1.706667 0 0 1 0.568889 2.133333c-9.272889 20.110222-2.389333 41.415111 5.063111 55.694223 6.542222 12.600889 14.620444 22.186667 17.607111 25.514666 26.168889-24.263111 38.257778-49.208889 36.039112-74.097778-3.413333-38.144-39.765333-64.739556-46.933334-69.603555-20.081778 21.76-33.991111 41.898667-41.244444 59.932444-6.001778 15.075556-7.480889 28.814222-4.295111 40.704 5.404444 20.48 23.438222 31.146667 32.483555 35.328-15.729778-23.722667-15.900444-42.382222-13.027555-54.101333 3.328-13.738667 11.178667-21.105778 11.52-21.418667a1.678222 1.678222 0 0 1 1.137777-0.455111zM559.331556 461.368889a121.628444 121.628444 0 0 0-20.622223 50.801778c-2.673778 17.294222-0.341333 28.956444-0.256 29.411555a3.498667 3.498667 0 0 0 3.470223 2.816c0.568889 0 1.052444-0.113778 1.564444-0.369778a103.992889 103.992889 0 0 0 52.707556-57.742222 111.502222 111.502222 0 0 0 5.944888-23.182222c1.422222 4.977778 1.735111 10.524444 1.706667 15.160889-0.113778 9.159111-1.763556 16.896-1.763555 16.924444a3.527111 3.527111 0 0 0 1.649777 3.783111c0.568889 0.284444 1.137778 0.455111 1.763556 0.455112 0.853333 0 1.706667-0.284444 2.360889-0.910223 8.817778-7.964444 27.477333-13.710222 42.439111-17.237333a335.160889 335.160889 0 0 0-79.644445 64.768c-20.280889 22.698667-28.984889 39.452444-29.326222 40.135111a3.527111 3.527111 0 0 0 3.157334 5.12h0.199111c19.683556-1.080889 44.515556-14.250667 73.784889-39.168 11.093333-9.386667 20.736-18.773333 27.505777-25.742222-2.844444 7.338667-6.172444 13.112889-8.903111 17.208889-4.608 6.912-8.533333 10.496-8.590222 10.524444a3.527111 3.527111 0 1 0 3.470222 5.973334c3.982222-1.336889 9.472-2.048 16.241778-2.048 8.704 0 18.375111 1.137778 26.737778 2.474666-60.643556 9.045333-92.017778 31.943111-107.946667 50.631111-18.432 21.617778-20.622222 41.870222-20.821333 44.942223-0.568889 2.275556-3.584 15.416889-4.750222 34.816-1.109333 18.204444-0.654222 45.425778 7.253333 73.386666h-71.68c18.375111-48.071111 13.994667-80.981333 10.126222-110.08-0.768-5.518222-1.422222-10.752-1.991111-15.985778-1.336889-13.368889-10.837333-26.510222-28.188444-39.025777-13.425778-9.699556-31.687111-19.086222-54.272-27.989334-17.635556-6.940444-35.214222-12.515556-49.095112-16.497777 22.186667 1.621333 42.097778 5.632 42.382223 5.688888 0.227556 0.056889 0.426667 0.056889 0.682666 0.056889a3.555556 3.555556 0 0 0 2.759111-1.308444 3.498667 3.498667 0 0 0 0.455112-3.612445c-3.128889-6.997333-5.632-12.970667-7.651556-18.090666 13.994667 17.294222 30.094222 27.591111 42.666667 33.507555 18.545778 8.817778 33.194667 10.211556 33.792 10.24h0.284444a3.584 3.584 0 0 0 2.531556-1.052444 3.356444 3.356444 0 0 0 0.938666-2.844445c-2.588444-21.048889-15.843556-39.822222-38.200889-54.158222a238.193778 238.193778 0 0 1 36.807112 16.213334c0.568889 0.284444 1.137778 0.455111 1.763555 0.455111a3.498667 3.498667 0 0 0 3.470222-2.958223c0.711111-4.551111 2.360889-10.467556 4.209778-16.298666-0.682667 18.005333 0.369778 32.824889 3.271111 44.231111 3.214222 12.600889 7.566222 16.583111 8.362667 17.237333a3.413333 3.413333 0 0 0 2.161778 0.739556l0.568889-0.028445a3.555556 3.555556 0 0 0 2.332444-1.507555c18.432-26.851556 24.547556-51.569778 18.204444-73.415111-3.697778-12.913778-12.060444-24.888889-24.035555-34.531556a110.421333 110.421333 0 0 0-4.551111-3.470222c11.377778 1.763556 21.248 6.286222 28.046222 10.24 9.500444 5.546667 15.36 11.121778 15.388444 11.178667a3.498667 3.498667 0 0 0 2.474667 0.995555c0.199111 0 0.455111 0 0.654222-0.056889a3.584 3.584 0 0 0 2.56-1.991111 69.404444 69.404444 0 0 1 23.438223-28.785778z" fill="#7F7F92" p-id="23521"></path><path d="M599.523556 451.128889s1.422222 60.586667-57.656889 89.742222c0 0-9.187556-45.226667 29.923555-89.742222 0 0-25.315556 6.940444-39.111111 37.603555 0 0-23.893333-23.182222-55.580444-23.182222-1.450667 0-2.844444 0.056889-4.323556 0.170667 0 0 76.8 32.995556 21.475556 113.493333 0 0-16.298667-12.8-8.248889-84.110222 0 0-10.922667 26.567111-13.226667 41.187556 0 0-34.645333-19.996444-72.931555-25.315556 0 0 62.976 17.635556 69.12 66.730667 0 0-57.742222-5.290667-87.836445-63.715556 0 0 1.678222 12.259556 15.502222 42.951111 0 0-31.345778-6.428444-59.733333-6.428444-3.982222 0-7.879111 0.113778-11.662222 0.398222 0 0 150.954667 33.536 156.444444 87.637333 3.470222 34.275556 14.08 70.257778-9.813333 129.223111h81.578667c-17.493333-56.32-3.697778-111.189333-3.697778-111.189333s3.982222-83.399111 147.996444-95.118222c0 0-27.477333-6.912-49.493333-6.912-6.599111 0-12.686222 0.568889-17.408 2.275555 0 0 16.440889-14.705778 22.897778-43.690666 0 0-63.630222 72.163556-109.198223 74.780444 0 0 8.590222-16.753778 28.814223-39.395555 20.224-22.670222 51.996444-51.256889 98.417777-74.865778 0 0-49.322667 7.025778-66.218666 22.357333 0 0 6.826667-31.800889-6.030222-44.885333z" fill="#7F7F92" p-id="23522"></path><path d="M630.784 475.164444a18.204444 18.204444 0 1 1 0-36.408888 18.204444 18.204444 0 0 1 0 36.408888z" fill="#7F7F92" p-id="23523"></path><path d="M630.784 442.311111a14.705778 14.705778 0 1 0 0.028444 29.383111 14.705778 14.705778 0 0 0 0-29.411555zM527.900444 470.129778a18.204444 18.204444 0 1 1-0.028444-36.408889 18.204444 18.204444 0 0 1 0 36.408889z" fill="#7F7F92" p-id="23524"></path><path d="M527.900444 437.276444a14.705778 14.705778 0 1 0 0 29.383112 14.705778 14.705778 0 0 0 0-29.383112zM671.772444 552.220444a18.204444 18.204444 0 1 1 0-36.380444 18.204444 18.204444 0 0 1 0 36.408889z" fill="#7F7F92" p-id="23525"></path><path d="M671.772444 519.395556a14.705778 14.705778 0 1 0 0.028445 29.354666 14.705778 14.705778 0 0 0 0-29.383111zM458.837333 518.656a18.204444 18.204444 0 1 1 0-36.380444 18.204444 18.204444 0 0 1 0 36.408888z" fill="#7F7F92" p-id="23526"></path><path d="M458.837333 485.831111a14.705778 14.705778 0 1 0 0 29.354667 14.705778 14.705778 0 0 0 0-29.383111zM358.855111 545.507556a18.204444 18.204444 0 1 1-0.028444-36.408889 18.204444 18.204444 0 0 1 0 36.408889z" fill="#7F7F92" p-id="23527"></path><path d="M358.855111 512.568889a14.705778 14.705778 0 1 0 0 29.411555 14.705778 14.705778 0 0 0 0-29.383111z" fill="#7F7F92" p-id="23528"></path></svg>