<?xml version="1.0" standalone="no"?><!DOCTYPE svg PUBLIC "-//W3C//DTD SVG 1.1//EN" "http://www.w3.org/Graphics/SVG/1.1/DTD/svg11.dtd"><svg t="1726412928500" class="icon" viewBox="0 0 1024 1024" version="1.1" xmlns="http://www.w3.org/2000/svg" p-id="21684" xmlns:xlink="http://www.w3.org/1999/xlink" width="200" height="200"><path d="M626 237.7c0.6-4 1-8.1 1-12.4 0-48.5-87-87.8-87-87.8s-87 39.3-87 87.8c0 4.2 0.4 8.3 1 12.4h172zM453 315.1c58-1.4 116.1-1.6 174 0.4-0.2 14.6-0.5 29.1-1.1 43.6-57.4 3-115 2-172.4 1-0.3-14.9-0.4-29.9-0.5-45zM403.6 376.6c89.2-7.8 179.2-4.7 268.5-2.4-15.4 19.2-41.5 36.3-36.7 64.3C639 500.5 648 562 650.7 624c-24.9-67.9-28-141.4-49.8-210.4-19.8 0-39.5 0-59.3-0.1-7.9 101.4-12.7 203.1-15.4 304.7 89.7-37.3 183.5-80.7 283.3-68.9 63.9 6 123.1 45.3 150.5 103.9-35.1-18.6-69-42.3-109.5-47.3-106.1-15.5-210.8 27-298.6 83.4-91 57.6-197.8 103.9-307.8 89.5-73.9-8.5-139.7-54.4-180.3-115.7 35.9 16.5 70.3 37.3 109.1 46.6 66.8 17.2 137.7 10.2 202.8-11.1 18.5-103.4 33.8-207.3 51.7-310.8 3.4-22 9.2-43.9 8.2-66.4-5.4-17.6-21.3-30-32-44.8z" p-id="21685" fill="#707070"></path><path d="M645 765.6c65.3-24.3 136-36.3 205.6-29.4 30.8 3.7 63 10.8 88.1 30.1 20.7 14.8 22.4 44.6 13.1 66.5-13.3 27.2-42.9 39.3-67.5 53.7 7.8-22 27.6-50.5 5.7-70.9-37.3-34.2-92.8-33.8-140.4-33.3-85.5 3.5-167.4 31.8-243.7 68.9 37.4-41 88.1-66 139.1-85.6z" p-id="21686" fill="#707070"></path><path d="M468.1 247.5l46.2-1.2c-1.8 17.5-3.2 35.2-4.4 52.9-14-0.2-27.9-0.5-41.8-0.9-0.1-16.9-0.1-33.8 0-50.8zM565.2 246.2c15.1 0.7 30.2 1.4 45.3 2.2 0.1 16.4 0.1 32.8-0.1 49.3-14.7 0.8-29.4 1.4-44.1 1.9 0-17.7-0.3-35.6-1.1-53.4z" p-id="21687" fill="#707070"></path></svg>