<?xml version="1.0" encoding="UTF-8"?>
<svg version="1.1" xmlns="http://www.w3.org/2000/svg" width="1640" height="1640">
<path d="M0 0 C541.2 0 1082.4 0 1640 0 C1640 541.2 1640 1082.4 1640 1640 C1098.8 1640 557.6 1640 0 1640 C0 1098.8 0 557.6 0 0 Z " fill="#000000" transform="translate(0,0)"/>
<path d="M0 0 C1.04744385 0.00161133 2.0948877 0.00322266 3.17407227 0.00488281 C21.63012301 0.29381185 41.067707 6.755207 54.375 20.0625 C55.38050547 21.16165549 56.38119657 22.26525284 57.375 23.375 C58.2 24.138125 59.025 24.90125 59.875 25.6875 C74.17597776 41.06105109 80.375 59.71806752 80.375 80.375 C240.095 80.375 399.815 80.375 564.375 80.375 C564.375 75.095 564.375 69.815 564.375 64.375 C570.09723038 42.73781636 582.03461442 22.86815996 601.58056641 11.03417969 C614.77479587 3.4299952 627.80834823 -0.02453234 643 0 C644.04744385 0.00161133 645.0948877 0.00322266 646.17407227 0.00488281 C664.63012301 0.29381185 684.067707 6.755207 697.375 20.0625 C698.38050547 21.16165549 699.38119657 22.26525284 700.375 23.375 C701.2 24.138125 702.025 24.90125 702.875 25.6875 C721.46367043 45.67032071 724.70942176 71.30675569 724.62947559 97.42761993 C724.63187203 99.08120655 724.63514142 100.73479208 724.63919219 102.38837546 C724.64774535 106.90050468 724.64401383 111.41254985 724.63813647 115.9246802 C724.6339432 120.8456849 724.64138104 125.7666749 724.64728898 130.68767595 C724.65603137 139.30194869 724.65737008 147.91619764 724.65378571 156.53047371 C724.64846965 169.34038372 724.65458303 182.15027078 724.66286864 194.9601783 C724.67809795 219.17026098 724.67981487 243.38033319 724.67734561 267.59041965 C724.677084 270.25785247 724.6768268 272.9252853 724.67658257 275.59271812 C724.67652153 276.2546899 724.67646049 276.91666168 724.67639759 277.59869321 C724.6751242 292.28693599 724.67772979 306.97517774 724.68110864 321.66342009 C724.68187939 325.02001398 724.68262413 328.37660788 724.68337366 331.73320177 C724.68367535 333.08039398 724.68397723 334.4275862 724.6842793 335.77477841 C724.68442898 336.44256968 724.68457866 337.11036096 724.68473287 337.79838834 C724.68503641 339.14917787 724.68534109 340.4999674 724.68564692 341.85075693 C724.69431622 380.16282114 724.69896645 418.47488408 724.69469929 456.78694916 C724.69462123 457.49592108 724.69454317 458.20489299 724.69446275 458.93534891 C724.69359 466.84066488 724.69266073 474.74598084 724.69171212 482.65129679 C724.69162661 483.36499502 724.6915411 484.07869324 724.691453 484.81401869 C724.6907423 490.74340561 724.6907423 490.74340561 724.69041077 493.47274225 C724.68487424 539.12945982 724.69242086 584.78615717 724.71118164 630.44287109 C724.71590403 641.94959763 724.72058461 653.45632419 724.7250185 664.96305084 C724.72529182 665.67160983 724.72556515 666.38016881 724.72584675 667.11019928 C724.73422017 688.95417046 724.7388979 710.79813996 724.73972607 732.64211273 C724.73975243 733.32807385 724.7397788 734.01403496 724.73980596 734.72078277 C724.74034679 749.7802696 724.73997421 764.83975629 724.73876625 779.89924307 C724.73834064 785.28786727 724.73797551 790.67649147 724.73763681 796.06511567 C724.73755151 797.40560375 724.73746257 798.74609183 724.73736999 800.08657991 C724.73596736 820.76569766 724.74236109 841.44480231 724.75332069 862.12391663 C724.7653678 884.87807673 724.76693715 907.6322098 724.75453053 930.3863703 C724.74789923 943.11817748 724.74953932 955.84992 724.76311904 968.58172202 C724.77136139 977.08948479 724.76866875 985.59719911 724.75714377 994.10495794 C724.75088539 998.94999592 724.74929172 1003.79490771 724.76100711 1008.63993841 C724.77158668 1013.05596051 724.76811969 1017.47175011 724.75390258 1021.88775996 C724.7511957 1023.46721291 724.75340223 1025.04668485 724.76140973 1026.62611981 C724.82413643 1039.91597164 724.30039188 1054.56593143 718 1066.5625 C717.6611377 1067.24497803 717.32227539 1067.92745605 716.97314453 1068.63061523 C712.46984107 1077.48421644 707.25079233 1085.95815701 702.12353516 1094.45849609 C699.18326454 1099.3627788 696.31188504 1104.30691048 693.4375 1109.25 C692.26179188 1111.26827177 691.08601035 1113.28650078 689.91015625 1115.3046875 C689.32637207 1116.30725586 688.74258789 1117.30982422 688.14111328 1118.34277344 C685.22171978 1123.3550581 682.29818832 1128.36492787 679.375 1133.375 C675.90909768 1139.31578976 672.44361914 1145.25682426 668.98046875 1151.19921875 C660.82317605 1165.19417268 652.64731166 1179.17812847 644.4418335 1193.1448822 C642.18005789 1196.99687989 639.93098317 1200.85605724 637.6875 1204.71875 C626.45041187 1224.01899486 614.88816456 1242.22091889 592.08984375 1248.83203125 C582.43684044 1250.76263191 572.71445903 1250.51050841 562.92163086 1250.48852539 C561.15677899 1250.48824299 559.391927 1250.48840229 557.6270752 1250.4889679 C552.85708873 1250.4892538 548.08712761 1250.48339046 543.31714702 1250.47639394 C538.32435279 1250.47012602 533.33155793 1250.46955388 528.33876038 1250.46836853 C518.89361604 1250.46526534 509.44848334 1250.45706562 500.00334412 1250.44701904 C489.24638881 1250.43582644 478.48943294 1250.43033953 467.73247325 1250.42532361 C445.61330902 1250.41488214 423.49415524 1250.39730233 401.375 1250.375 C401.37844421 1250.98852325 401.38188843 1251.60204651 401.38543701 1252.23416138 C401.38811584 1253.04134613 401.39079468 1253.84853088 401.39355469 1254.68017578 C401.3969989 1255.47932404 401.40044312 1256.27847229 401.4039917 1257.10183716 C401.16618945 1275.74728553 391.13258942 1295.16178238 378.375 1308.375 C362.24823375 1323.48169971 342.08504564 1331.94223572 319.91479492 1331.79858398 C298.5640757 1331.08825781 277.34569468 1321.6354891 262.6875 1306.109375 C250.84336178 1292.10448184 242.16962285 1276.32717285 242.33129883 1257.6003418 C242.33445351 1256.904739 242.33760818 1256.2091362 242.34085846 1255.49245453 C242.34905014 1253.78661806 242.36158932 1252.08080342 242.375 1250.375 C241.46354343 1250.37684359 240.55208687 1250.37868717 239.61301041 1250.38058662 C217.40222947 1250.42481737 195.19145617 1250.45788171 172.98064041 1250.47862434 C162.23951889 1250.48892277 151.49842683 1250.50295563 140.75732422 1250.52587891 C131.39186958 1250.54585674 122.02643627 1250.55872685 112.66096091 1250.56317699 C107.70522401 1250.56577693 102.74954815 1250.57185795 97.79383087 1250.58646011 C93.12191487 1250.60011351 88.45008461 1250.60420706 83.77815056 1250.60121536 C82.07065044 1250.60176207 80.36314721 1250.60569303 78.65566444 1250.61341095 C58.06867156 1250.70183981 41.22717775 1247.5011643 25.5 1233.25 C17.99670139 1225.38039863 12.81955395 1215.71605782 7.375 1206.375 C6.77494141 1205.34681152 6.17488281 1204.31862305 5.55664062 1203.25927734 C2.39501109 1197.8263718 -0.74325146 1192.38043825 -3.8671875 1186.92578125 C-7.44304787 1180.68231798 -11.0575855 1174.46216041 -14.6875 1168.25 C-15.54782837 1166.77696411 -15.54782837 1166.77696411 -16.42553711 1165.27416992 C-17.58054055 1163.29692757 -18.73573216 1161.31979512 -19.89111328 1159.34277344 C-22.8051084 1154.35509043 -25.71482568 1149.36491295 -28.625 1144.375 C-29.79164643 1142.3749882 -30.95831309 1140.37498819 -32.125 1138.375 C-34.45833333 1134.375 -36.79166667 1130.375 -39.125 1126.375 C-39.70290283 1125.38435547 -40.28080566 1124.39371094 -40.8762207 1123.37304688 C-42.03898039 1121.3796518 -43.20157892 1119.3861627 -44.36401367 1117.39257812 C-47.33912033 1112.29072692 -50.31729386 1107.19070544 -53.30078125 1102.09375 C-56.75299694 1096.19375865 -60.19525903 1090.28808543 -63.625 1084.375 C-64.31215088 1083.19091553 -64.31215088 1083.19091553 -65.01318359 1081.98291016 C-75.24552009 1064.28616031 -79.78364997 1050.81029763 -79.75084114 1030.22029591 C-79.75188505 1028.56659939 -79.75336687 1026.91290311 -79.75524551 1025.25920734 C-79.7591413 1020.70951412 -79.75680864 1016.1598421 -79.75346755 1011.61014923 C-79.75093259 1006.66235843 -79.75419009 1001.71457089 -79.75671089 996.76678056 C-79.76032519 988.09315782 -79.76021139 979.4195413 -79.75766373 970.74591827 C-79.7538855 957.84778769 -79.7558128 944.94966236 -79.75887203 932.05153181 C-79.76414222 909.01575411 -79.76367958 885.97997916 -79.76079312 862.94420121 C-79.75827009 842.78227568 -79.75761847 822.62035117 -79.75881577 802.45842552 C-79.75889324 801.10836432 -79.7589704 799.75830313 -79.75904724 798.40824193 C-79.7593577 792.98287002 -79.75967637 787.5574981 -79.760007 782.13212619 C-79.76092404 766.96541206 -79.76149462 751.79869792 -79.76179314 736.63198376 C-79.76180678 735.94130567 -79.76182043 735.25062759 -79.76183449 734.53901986 C-79.7622438 712.52898251 -79.76111672 690.51894551 -79.75894356 668.50890827 C-79.75887331 667.79498153 -79.75880306 667.08105479 -79.75873068 666.3454939 C-79.75758573 654.7517963 -79.75636627 643.1580987 -79.75514051 631.5644011 C-79.75028551 585.5950978 -79.75050835 539.62579742 -79.75537109 493.65649414 C-79.7565923 482.07459927 -79.75780336 470.4927044 -79.75894356 458.91080952 C-79.75901401 458.19765367 -79.75908445 457.48449782 -79.75915704 456.74973118 C-79.76131367 434.76714805 -79.76222741 412.78456516 -79.76179314 390.80198193 C-79.76177955 390.11174358 -79.76176597 389.42150524 -79.76175197 388.71035059 C-79.76143947 373.55741524 -79.76080579 358.40447991 -79.75988263 343.25154458 C-79.7595535 337.82944446 -79.75924042 332.40734433 -79.75893192 326.9852442 C-79.75885453 325.63637897 -79.7587758 324.28751374 -79.75869573 322.93864851 C-79.75750263 302.78592337 -79.75851764 282.63319936 -79.76104442 262.48047436 C-79.76400055 238.90310903 -79.76360013 215.32574714 -79.75801457 191.74838219 C-79.75507689 178.92491288 -79.75488863 166.10145052 -79.75866075 153.2779814 C-79.76090247 144.7126662 -79.75950874 136.14735657 -79.75515598 127.5820422 C-79.7527768 122.70156219 -79.75196476 117.82109598 -79.75556196 112.94061641 C-79.75880457 108.49588423 -79.75740211 104.05117803 -79.7523813 99.60644772 C-79.75137872 98.01319253 -79.75202811 96.41993516 -79.75458724 94.8266817 C-79.79686522 66.48157358 -75.50950076 42.91450636 -55.171875 21.83203125 C-39.97417335 7.14536343 -21.03325212 -0.03396569 0 0 Z " fill="#FEFEFE" transform="translate(498.625,198.625)"/>
<path d="M0 0 C263.34 0 526.68 0 798 0 C798 0.33 798 0.66 798 1 C797.3822168 1.0093457 796.76443359 1.01869141 796.12792969 1.02832031 C726.67081007 2.30667221 658.86247931 14.84074841 592 33 C591.12621704 33.23656311 590.25243408 33.47312622 589.35217285 33.71685791 C560.76970193 41.48638279 533.3715894 51.72365874 506 63 C505.15034668 63.34844971 504.30069336 63.69689941 503.42529297 64.0559082 C472.3965135 76.78978903 442.66742425 91.6974361 413.63769531 108.49511719 C410.99283931 110.00408538 408.32639485 111.46475782 405.6484375 112.9140625 C382.07349358 125.75593769 359.59988159 141.00930379 338.25732422 157.27978516 C335.7638814 159.17993637 333.2591758 161.06469174 330.75390625 162.94921875 C321.25823856 170.11426348 311.90663655 177.42229714 302.71484375 184.97265625 C299.06723932 187.9627936 295.3508356 190.85842759 291.625 193.75 C285.84720706 198.25949693 280.36206533 202.99906938 275 208 C273.87112805 209.04821403 272.7422192 210.09638831 271.61328125 211.14453125 C269.04892487 213.52905851 266.49146062 215.92075027 263.9375 218.31640625 C261.47050616 220.62951471 258.99277851 222.92956232 256.5 225.21484375 C247.81024057 233.216223 239.38607395 241.48233926 231.01202393 249.81173706 C229.72927081 251.08708064 228.44492909 252.3608287 227.15887451 253.63284302 C219.61176405 261.10512587 212.60122457 268.67099511 206 277 C203.94569663 279.42166045 201.84829776 281.80395687 199.75 284.1875 C190.18065587 295.16247854 181.05282054 306.4431522 172.38085938 318.14038086 C169.14831409 322.49652387 165.82423015 326.76312285 162.4375 331 C157.64080172 337.03667854 153.25660696 343.30073008 148.94140625 349.6875 C146.88856087 352.72025555 144.78792579 355.71243852 142.65234375 358.6875 C134.57307936 369.97119362 127.33199654 381.55719414 120.40625 393.58007812 C118.55058162 396.77337412 116.61989452 399.91503922 114.6875 403.0625 C108.01900114 414.05591044 101.95488633 425.41916887 95.79882812 436.70458984 C94.33527554 439.38578322 92.86415252 442.06257091 91.390625 444.73828125 C74.39667841 475.88132314 60.89192761 509.60862696 49 543 C48.54653961 544.26177371 48.09291817 545.52348955 47.63916016 546.78515625 C19.16882084 626.18554872 6.26820241 708.07292296 1 792 C0.67 792 0.34 792 0 792 C0 530.64 0 269.28 0 0 Z " fill="#FEFEFE" transform="translate(0,0)"/>
<path d="M0 0 C0.33 0 0.66 0 1 0 C1.05945801 1.04075684 1.11891602 2.08151367 1.18017578 3.15380859 C2.93782398 33.26117896 5.97967547 63.11215367 10 93 C10.11752625 93.87763 10.23505249 94.75526001 10.35614014 95.65948486 C20.94088921 174.14276859 45.66382624 249.89290452 78.8125 321.625 C79.19910797 322.46301147 79.58571594 323.30102295 79.98403931 324.16442871 C87.3717025 340.12167087 95.42425027 355.71749687 104.125 371 C104.65577148 371.93513428 105.18654297 372.87026855 105.73339844 373.83374023 C118.43164096 396.10318254 131.54605228 417.93869024 146.44726562 438.81347656 C147.99271209 440.98973734 149.52220412 443.1763316 151.046875 445.3671875 C156.94404048 453.82821361 163.05380103 462.03903345 169.49023438 470.09570312 C171.7831367 472.98778562 174.03867119 475.90850671 176.29760742 478.82714844 C184.55154737 489.4883497 192.99548792 499.93214376 201.86938477 510.0847168 C202.37397217 510.66261963 202.87855957 511.24052246 203.3984375 511.8359375 C203.95781006 512.47547363 204.51718262 513.11500977 205.09350586 513.77392578 C206.48112752 515.39415043 207.84327365 517.0362986 209.18969727 518.69091797 C217.09338053 528.31472025 225.79213062 537.06327469 234.62573242 545.83154297 C237.19838758 548.38580976 239.76281822 550.94812071 242.32617188 553.51171875 C243.98129816 555.16193255 245.63688117 556.81168842 247.29296875 558.4609375 C248.04837448 559.21523041 248.80378021 559.96952332 249.58207703 560.74667358 C253.71031303 564.8385659 257.92460991 568.7700297 262.33638 572.55532837 C264.32300184 574.2804917 266.172846 576.1075905 268 578 C271.83540439 581.87991585 275.84679381 585.46520692 280 589 C280.95777344 589.82371094 281.91554688 590.64742187 282.90234375 591.49609375 C289.60800063 597.23965715 296.45090937 602.77287762 303.41796875 608.1953125 C305.81464618 610.0632438 308.19058509 611.95337486 310.55078125 613.8671875 C319.7458877 621.32126757 329.18750459 628.38628931 338.75439453 635.35546875 C340.79332366 636.84864407 342.81943779 638.35690491 344.83984375 639.875 C354.14438771 646.84400564 363.80196592 653.18274188 373.59228516 659.44628906 C375.77851952 660.85707749 377.94550758 662.29161755 380.10546875 663.7421875 C391.95450047 671.65763922 404.39683804 678.46308313 416.89013672 685.29296875 C419.5309159 686.74251562 422.16169934 688.20692957 424.78515625 689.6875 C438.00377838 697.14489185 451.48774239 704.09269239 465 711 C465.95132812 711.49314697 466.90265625 711.98629395 467.8828125 712.49438477 C476.49450919 716.89949703 485.33470337 720.69839883 494.25 724.4375 C495.48135178 724.95398102 495.48135178 724.95398102 496.73757935 725.480896 C545.55952818 745.89808097 595.36944456 761.37464783 647 773 C647.84826355 773.19164734 648.6965271 773.38329468 649.57049561 773.58074951 C695.5347362 783.91500272 742.91466072 789.52540514 790 791 C790 791.33 790 791.66 790 792 C529.3 792 268.6 792 0 792 C0 530.64 0 269.28 0 0 Z " fill="#FEFEFE" transform="translate(0,848)"/>
<path d="M0 0 C263.34 0 526.68 0 798 0 C798 259.38 798 518.76 798 786 C797.67 786 797.34 786 797 786 C796.93530518 784.97793457 796.87061035 783.95586914 796.80395508 782.90283203 C795.084709 756.14773901 792.62365394 729.56658779 789 703 C788.81951111 701.67289001 788.81951111 701.67289001 788.63537598 700.31896973 C784.53842342 670.44417068 778.47067337 641.20839793 771 612 C770.78063782 611.13953064 770.56127563 610.27906128 770.33526611 609.39251709 C756.8406613 556.69293592 736.72800479 505.88558971 713 457 C712.60409668 456.1764502 712.20819336 455.35290039 711.80029297 454.50439453 C709.61305922 449.95975085 707.33823017 445.46866248 705 441 C704.53368164 440.10313477 704.06736328 439.20626953 703.58691406 438.28222656 C694.98759755 421.8121689 685.67260576 405.90298143 675.91113281 390.10693359 C674.22112115 387.35947723 672.55273328 384.60108307 670.8984375 381.83203125 C665.1773388 372.27304562 659.02536271 363.13719955 652.50732422 354.10449219 C651.00841505 352.01174891 649.53374841 349.90403547 648.06640625 347.7890625 C641.28658151 338.03071978 634.14621133 328.61433994 626.79101562 319.28369141 C624.98778332 316.98442273 623.20228969 314.67244011 621.421875 312.35546875 C614.67579376 303.58574837 607.75971093 295.0356069 600.48095703 286.703125 C598.94422843 284.93586178 597.42147991 283.15740231 595.90234375 281.375 C595.38494629 280.76817383 594.86754883 280.16134766 594.33447266 279.53613281 C593.37130154 278.40578955 592.40866767 277.27498807 591.44677734 276.14355469 C584.23154487 267.70211991 576.73333948 259.58016306 568.87109375 251.73828125 C568.03715591 250.90338669 567.20321808 250.06849213 566.3440094 249.20829773 C564.59653373 247.46014719 562.84781727 245.71323615 561.09790039 243.9675293 C558.43715972 241.31216041 555.7818207 238.65147383 553.12695312 235.99023438 C551.4169873 234.28092919 549.70671138 232.57193414 547.99609375 230.86328125 C547.21254013 230.0777034 546.42898651 229.29212555 545.62168884 228.48274231 C541.42596145 224.30462192 537.15019841 220.28660919 532.65345764 216.43327332 C530.6690426 214.71311487 528.82369395 212.88882588 527 211 C508.88921407 192.7150719 487.08358604 177.44613327 466.59472656 161.96386719 C464.96622058 160.73130206 463.34018027 159.49546518 461.71777344 158.25488281 C440.94981303 142.38122278 418.81599789 127.76562044 396 115 C394.06756799 113.90780035 392.13528879 112.81533033 390.203125 111.72265625 C377.39149209 104.4980736 364.52373911 97.37471883 351.57519531 90.3984375 C349.16092862 89.08739089 346.76322004 87.75024089 344.3671875 86.40625 C286.90067467 54.66015109 221.15326435 34.94584502 157.42358398 20.54888916 C155.04471885 20.01012785 152.66777996 19.46347257 150.29101562 18.91552734 C101.1608123 7.65991171 50.3675539 2.04859987 0 1 C0 0.67 0 0.34 0 0 Z " fill="#FEFEFE" transform="translate(842,0)"/>
<path d="M0 0 C0.33 0 0.66 0 1 0 C1 259.38 1 518.76 1 786 C-259.7 786 -520.4 786 -789 786 C-789 785.67 -789 785.34 -789 785 C-787.82695313 784.97421875 -786.65390625 784.9484375 -785.4453125 784.921875 C-718.99283755 782.96835125 -653.99507441 770.27485132 -590 753 C-589.17238159 752.77803955 -588.34476318 752.5560791 -587.49206543 752.32739258 C-529.27410835 736.68392263 -473.02954641 712.3016338 -420.8125 682.30859375 C-416.67308156 679.93598287 -412.50431197 677.62641445 -408.3125 675.34765625 C-394.87719687 668.03112038 -381.97562492 660.32143763 -369.38623047 651.63037109 C-367.09040953 650.06177152 -364.77359172 648.53340603 -362.44140625 647.01953125 C-351.37061917 639.82115694 -340.90196863 631.96396918 -330.45849609 623.88818359 C-326.89900961 621.15441314 -323.29268648 618.48548058 -319.6875 615.8125 C-313.61715354 611.29110157 -307.71386982 606.59009141 -301.86474609 601.78662109 C-298.1400355 598.72864011 -294.38201126 595.72878916 -290.5637207 592.78857422 C-284.29310884 587.95077051 -278.37227397 582.86407267 -272.62231445 577.41845703 C-270.21284424 575.1407159 -267.79401318 572.87368377 -265.36645508 570.61523438 C-254.60093329 560.57715641 -244.10213189 550.28838402 -233.69482422 539.88012695 C-230.98034095 537.16785698 -228.25789997 534.4637402 -225.53515625 531.75976562 C-214.09565545 520.43123243 -214.09565545 520.43123243 -203.69287109 508.16650391 C-201.78423781 505.72387169 -199.7303027 503.4617633 -197.625 501.1875 C-192.58714933 495.65197604 -188.04440261 489.77470687 -183.45898438 483.86621094 C-180.98260658 480.69863533 -178.45727313 477.57057259 -175.9375 474.4375 C-166.73486663 462.95076508 -157.96915792 451.26044146 -149.54101562 439.19384766 C-148.01385403 437.01972312 -146.47084992 434.85784422 -144.921875 432.69921875 C-126.76849549 407.3605499 -111.60706827 379.95160525 -96.51660156 352.71582031 C-95.15346999 350.27482295 -93.76779505 347.84930959 -92.3671875 345.4296875 C-74.57725326 314.52506176 -61.35665076 280.37429342 -49 247 C-48.5060212 245.68216995 -48.01170546 244.36446617 -47.51708984 243.046875 C-37.58700936 216.50161617 -29.90205227 189.47726153 -23 162 C-22.77614624 161.1103656 -22.55229248 160.2207312 -22.32165527 159.30413818 C-9.30187406 107.29461824 -2.75568473 53.5002961 0 0 Z " fill="#FEFEFE" transform="translate(1639,854)"/>
<path d="M0 0 C20.84413603 -0.02332712 41.68826992 -0.04097826 62.53241634 -0.05181217 C72.21001051 -0.05697553 81.88759658 -0.06401897 91.56518555 -0.07543945 C99.99700331 -0.08538509 108.42881521 -0.09185314 116.86063868 -0.09408849 C121.32807392 -0.09539581 125.7954924 -0.09848295 130.26292229 -0.10573006 C134.4628416 -0.11248838 138.66273713 -0.11461735 142.86266136 -0.11310768 C144.40868509 -0.11338409 145.95470956 -0.11539033 147.50072861 -0.11920547 C149.60235776 -0.1241398 151.70389572 -0.12299928 153.80552673 -0.12025452 C154.98449996 -0.12117631 156.16347319 -0.1220981 157.37817287 -0.12304783 C160 0 160 0 161 1 C161.09800662 2.66303538 161.12523009 4.33026932 161.12534916 5.99619007 C161.12785268 7.08757821 161.1303562 8.17896635 161.13293558 9.30342686 C161.13059442 10.51981654 161.12825325 11.73620621 161.12584114 12.98945618 C161.12729458 14.27347443 161.12874802 15.55749267 161.13024551 16.88042057 C161.13417115 20.4769101 161.13179318 24.07337311 161.12846755 27.66986226 C161.12594694 31.57026326 161.12918434 35.47065997 161.13171089 39.37106037 C161.13533572 46.21772953 161.13520498 53.06439081 161.13266373 59.91106033 C161.1288951 70.09197495 161.13080774 80.27288287 161.13387203 90.45379743 C161.13914948 108.63252885 161.13867674 126.81125677 161.13579312 144.98998854 C161.13328194 160.89808071 161.13261882 176.80617159 161.13381577 192.71426392 C161.13393034 194.29437845 161.13393034 194.29437845 161.13404724 195.90641449 C161.13435855 200.18207189 161.13467695 204.45772929 161.135007 208.73338668 C161.13806904 248.87857652 161.13528772 289.02376412 161.1299101 329.16895361 C161.12516416 364.87012392 161.12558878 400.57129066 161.13037109 436.27246094 C161.13572059 476.34215315 161.13785192 516.41184339 161.13475883 556.48153591 C161.13443809 560.74960264 161.13412525 565.01766936 161.13381577 569.28573608 C161.13373669 570.33671653 161.13365761 571.38769697 161.13357614 572.4705253 C161.13243654 588.37232869 161.13377288 604.27413065 161.13629532 620.17593384 C161.1391478 638.24897513 161.13845428 656.32201236 161.13301457 674.39505315 C161.13006751 684.52174689 161.12990206 694.64843184 161.13366075 704.77512536 C161.13589122 711.52653651 161.13452932 718.27794057 161.13015598 725.02935066 C161.12776102 728.88461602 161.12699705 732.73986381 161.13056196 736.59512866 C161.13435004 740.73361529 161.13052569 744.87205814 161.12584114 749.01054382 C161.12818231 750.2269335 161.13052347 751.44332317 161.13293558 752.69657314 C161.13043207 753.78796128 161.12792855 754.87934942 161.12534916 756.00380993 C161.1252814 756.9517924 161.12521365 757.89977488 161.12514383 758.8764841 C161 761 161 761 160 762 C159.938125 763.216875 159.87625 764.43375 159.8125 765.6875 C158.59218818 777.42953452 151.20284666 788.54406586 145.1875 798.375 C143.76325974 800.72696014 142.34437216 803.08212929 140.92578125 805.4375 C139.90991943 807.12166016 139.90991943 807.12166016 138.87353516 808.83984375 C136.07528751 813.55974439 133.42275918 818.3629103 130.91479492 823.24365234 C128.55529386 827.63548363 125.87903416 830.00446554 122 833 C121.2575 833.804375 120.515 834.60875 119.75 835.4375 C115.91501667 839.01100719 111.56950661 841.46633861 107 844 C106.40316406 844.36738281 105.80632812 844.73476562 105.19140625 845.11328125 C97.70730523 848.14160733 88.59383841 847.18347642 80.6875 847.1875 C79.43259766 847.19974609 78.17769531 847.21199219 76.88476562 847.22460938 C60.28907541 847.25055365 50.30645841 844.24318616 37.96875 833.0859375 C36 831 36 831 35 828 C34.01 827.67 33.02 827.34 32 827 C30.47290039 824.81713867 30.47290039 824.81713867 28.84765625 821.91796875 C27.93838379 820.31586548 27.93838379 820.31586548 27.01074219 818.68139648 C26.36116263 817.51685662 25.71175221 816.3522224 25.0625 815.1875 C23.71873128 812.80508435 22.36915132 810.42597956 21.01953125 808.046875 C20.68166595 807.44926865 20.34380066 806.85166229 19.99569702 806.23594666 C16.41446654 799.92168318 12.63515533 793.72864991 8.76977539 787.5847168 C1.17338368 775.21990501 -0.30912992 762.06258159 -0.24609566 747.76165485 C-0.24840335 746.46411019 -0.25071103 745.16656553 -0.25308865 743.82970133 C-0.25919038 740.24187163 -0.25290698 736.65415637 -0.24453239 733.06633525 C-0.23763451 729.15798637 -0.24241117 725.24964852 -0.24568737 721.34129733 C-0.24982699 714.49620234 -0.24656071 707.65114219 -0.23841095 700.80605125 C-0.22632634 690.62770355 -0.2257407 680.44937775 -0.22749493 670.27102419 C-0.23012113 653.14830017 -0.22344599 636.02559161 -0.21146011 618.90287209 C-0.19962393 601.95052832 -0.19192779 584.99819099 -0.18975449 568.04584312 C-0.18961701 566.99158936 -0.18947953 565.9373356 -0.18933788 564.85113475 C-0.18866121 559.49705912 -0.18805845 554.14298349 -0.18748413 548.78890785 C-0.1832839 510.87123041 -0.16981083 472.95356138 -0.15087891 435.03588867 C-0.13250864 398.20060267 -0.1183421 361.36531896 -0.10986328 324.5300293 C-0.10960023 323.39449954 -0.10933718 322.25896977 -0.10906615 321.08903002 C-0.1064291 309.68551851 -0.10387747 298.28200699 -0.10138843 286.87849545 C-0.09631608 263.6484636 -0.09067358 240.4184319 -0.08468628 217.18840027 C-0.0844117 216.12033339 -0.08413712 215.05226651 -0.08385422 213.95183396 C-0.06545453 142.63455248 -0.03376432 71.31727566 0 0 Z " fill="#010101" transform="translate(901,441)"/>
<path d="M0 0 C52.8 0 105.6 0 160 0 C160.04026156 88.37598993 160.04026156 88.37598993 160.05130005 115.71868896 C160.05169472 116.69384915 160.05208938 117.66900934 160.05249601 118.67371983 C160.06574478 151.49783165 160.07624673 184.32194374 160.08468628 217.14605713 C160.08496239 218.21721071 160.08523851 219.2883643 160.08552299 220.39197708 C160.0915087 243.67062587 160.09704908 266.94927474 160.10213066 290.22792374 C160.10462535 301.6436484 160.10721845 313.05937303 160.10986328 324.47509766 C160.1101248 325.61110384 160.11038632 326.74711002 160.11065576 327.91754063 C160.11917955 364.74354353 160.13420299 401.5695403 160.15259444 438.39553949 C160.1714586 476.23675676 160.18377065 514.07797063 160.18782998 551.91919252 C160.1884063 557.26311698 160.18905757 562.60704143 160.18975449 567.95096588 C160.18995676 569.52861854 160.18995676 569.52861854 160.19016311 571.13814297 C160.19252721 588.07361829 160.20180512 605.00908311 160.21366407 621.94455415 C160.22543684 638.96743646 160.22993638 655.99030835 160.22700275 673.01319459 C160.22548079 683.12869508 160.22954441 693.24415748 160.24159509 703.3596511 C160.24909641 710.11767384 160.24932619 716.87567164 160.24366363 723.6336961 C160.24064522 727.48375066 160.24076919 731.33373321 160.24976636 735.18378004 C160.25939449 739.33544225 160.25347285 743.48694025 160.24609566 747.63860703 C160.25134968 748.82798974 160.25660371 750.01737246 160.26201695 751.24279708 C160.21758667 762.29255289 159.20561487 772.17734973 153.6875 781.875 C153.03696655 783.06367676 153.03696655 783.06367676 152.37329102 784.27636719 C147.29729481 793.45937878 141.91897261 802.47489811 136.51464844 811.46728516 C135.12180238 813.79632851 133.74797397 816.13512346 132.3828125 818.48046875 C125.88264346 829.61446132 120.32096997 836.44843417 109 843 C107.4221875 843.928125 107.4221875 843.928125 105.8125 844.875 C98.01021218 847.99591513 88.94131434 847.18329959 80.6875 847.1875 C79.43259766 847.19974609 78.17769531 847.21199219 76.88476562 847.22460938 C59.55171386 847.25170638 49.69123834 843.58222791 36.8359375 831.953125 C35 830 35 830 35 828 C34.01 827.67 33.02 827.34 32 827 C30.47290039 824.81713867 30.47290039 824.81713867 28.84765625 821.91796875 C28.24155518 820.85030273 27.6354541 819.78263672 27.01098633 818.68261719 C26.36118625 817.51774801 25.71169771 816.352705 25.0625 815.1875 C23.71750428 812.79853317 22.3669832 810.41271608 21.015625 808.02734375 C20.67755325 807.42870514 20.33948151 806.83006653 19.99116516 806.21328735 C17.39739933 801.64121104 14.65371464 797.17993143 11.86035156 792.72827148 C4.55748219 781.03561739 -0.12650813 769.42247271 -0.1241985 755.37525475 C-0.12644579 754.2709405 -0.12869308 753.16662625 -0.13100848 752.02884793 C-0.12838146 750.82370313 -0.12575445 749.61855834 -0.12304783 748.376894 C-0.12420167 747.08511856 -0.12535552 745.79334312 -0.12654433 744.46242297 C-0.12961428 740.86749393 -0.12643744 737.27259315 -0.12226619 733.67766621 C-0.11883325 729.77028195 -0.12120255 725.86290057 -0.12284368 721.95551574 C-0.12491846 715.10436681 -0.12327186 708.25322655 -0.11920547 701.40207863 C-0.11317567 691.21463825 -0.11286919 681.02720335 -0.11374746 670.8397615 C-0.11506209 653.70368014 -0.11171719 636.56760262 -0.10573006 619.43152237 C-0.09981598 602.46109117 -0.0959647 585.49066157 -0.09487724 568.52022934 C-0.0948085 567.46563188 -0.09473976 566.41103442 -0.09466894 565.32447946 C-0.09433061 559.96885903 -0.09402923 554.6132386 -0.09374207 549.25761817 C-0.09164084 511.30943967 -0.08490122 473.36126326 -0.07543945 435.41308594 C-0.06625725 398.54361991 -0.05917254 361.67415445 -0.05493164 324.8046875 C-0.05480011 323.66850011 -0.05466859 322.53231272 -0.05453308 321.3616954 C-0.05321457 309.95178578 -0.05193876 298.54187616 -0.05069422 287.13196653 C-0.0481579 263.88801631 -0.04533665 240.64406613 -0.04234314 217.40011597 C-0.04220585 216.33136264 -0.04206856 215.26260931 -0.04192711 214.16146951 C-0.03770345 181.39850913 -0.03227191 148.6355491 -0.02565002 115.87258911 C-0.02546247 114.94228929 -0.02527491 114.01198947 -0.02508167 113.05349875 C-0.01746579 75.368999 -0.00857227 37.68449954 0 0 Z " fill="#010101" transform="translate(580,441)"/>
<path d="M0 0 C0.66 0.33 1.32 0.66 2 1 C-1.21211454 6.26776555 -5.11369875 10.42024385 -9.46875 14.76953125 C-10.186073 15.49113937 -10.903396 16.2127475 -11.64245605 16.95622253 C-13.15281014 18.47229642 -14.6657604 19.98578787 -16.18115234 21.49682617 C-18.50117659 23.81367498 -20.80751906 26.14357654 -23.11328125 28.47460938 C-24.58512681 29.94872655 -26.05775628 31.42206154 -27.53125 32.89453125 C-28.56421204 33.94130791 -28.56421204 33.94130791 -29.61804199 35.00923157 C-30.26551392 35.6504747 -30.91298584 36.29171783 -31.58007812 36.95239258 C-32.14537231 37.51831619 -32.7106665 38.08423981 -33.29309082 38.66731262 C-35.18793761 40.14673428 -36.65111187 40.59298165 -39 41 C-37.58098338 37.77254476 -35.87144235 35.62741893 -33.37646484 33.14941406 C-32.63584808 32.40894836 -31.89523132 31.66848267 -31.13217163 30.90557861 C-30.33316437 30.11689392 -29.5341571 29.32820923 -28.7109375 28.515625 C-27.89251373 27.70003113 -27.07408997 26.88443726 -26.23086548 26.04412842 C-23.61690027 23.44135438 -20.99606495 20.84562238 -18.375 18.25 C-16.60110546 16.4861366 -14.82766234 14.7218191 -13.0546875 12.95703125 C-8.70834858 8.63273864 -4.35634919 4.3142067 0 0 Z " fill="#090909" transform="translate(253,227)"/>
<path d="M0 0 C0 3 0 3 -2.375 5.625 C-5 8 -5 8 -7 9 C-5.44499019 5.18315774 -2.96404505 2.80804268 0 0 Z " fill="#0B0B0B" transform="translate(1024,1270)"/>
<path d="M0 0 C0 3 0 3 -2.375 5.625 C-5 8 -5 8 -7 9 C-5.44499019 5.18315774 -2.96404505 2.80804268 0 0 Z " fill="#0B0B0B" transform="translate(703,1270)"/>
</svg>
