<?xml version="1.0" encoding="UTF-8"?>
<svg version="1.1" xmlns="http://www.w3.org/2000/svg" width="150" height="150">
<path d="M0 0 C14.15463379 11.02719885 26.54636079 27.76285472 29 46 C30.78051394 64.60729802 25.81538828 82.25373002 13.87109375 96.84375 C1.48808233 111.1139427 -15.0957327 120.34708502 -34.08203125 122.3203125 C-51.10701767 122.95009005 -67.33991401 116.49567236 -80.7421875 106.26171875 C-82 105 -82 105 -82 103 C-83.32 102.34 -84.64 101.68 -86 101 C-86 100.34 -86 99.68 -86 99 C-86.66 99 -87.32 99 -88 99 C-89.54604999 96.94669981 -90.94229339 94.91736149 -92.3125 92.75 C-92.71476807 92.11610352 -93.11703613 91.48220703 -93.53149414 90.82910156 C-103.05119824 75.46396513 -106.64212775 58.62266768 -102.92138672 40.83300781 C-99.97025865 28.51033583 -93.92921288 17.08450354 -85 8 C-84.01 7.67 -83.02 7.34 -82 7 C-82 6.34 -82 5.68 -82 5 C-58.44090049 -15.22329781 -25.66396204 -17.60475131 0 0 Z " fill="#030303" transform="translate(112,20)"/>
<path d="M0 0 C1.4540625 0.5259375 1.4540625 0.5259375 2.9375 1.0625 C3.51141479 2.31099731 3.51141479 2.31099731 4.09692383 3.5847168 C5.80803853 6.48082052 5.80803853 6.48082052 9.67456055 6.72192383 C11.22398287 6.76302276 12.77427046 6.77720957 14.32421875 6.76953125 C15.54973198 6.79221321 15.54973198 6.79221321 16.80000305 6.81535339 C19.40861392 6.85832961 22.01606997 6.86707742 24.625 6.875 C26.39391112 6.89813677 28.16279463 6.9235004 29.93164062 6.95117188 C34.2670296 7.01412163 38.60169418 7.04637941 42.9375 7.0625 C43.07671875 6.43859375 43.2159375 5.8146875 43.359375 5.171875 C44.06598107 2.59371771 44.76451464 1.6146324 46.9375 0.0625 C49.375 -0.375 49.375 -0.375 51.9375 0.0625 C55.0875876 2.36572488 55.86415162 3.59202787 56.47235107 7.4931488 C56.50820067 8.87973893 56.52207989 10.26700373 56.51855469 11.65405273 C56.53870636 12.79403465 56.53870636 12.79403465 56.55926514 13.95704651 C56.5972593 16.47032879 56.60507706 18.98254205 56.609375 21.49609375 C56.62223831 23.25285777 56.63569559 25.00961754 56.64971924 26.76637268 C56.67367988 30.45429388 56.68108043 34.14184044 56.67871094 37.82983398 C56.67830661 42.52420745 56.7326789 47.2161309 56.80179977 51.90992641 C56.84661559 55.54348947 56.85437745 59.17647844 56.85227203 62.81028938 C56.85695134 64.53847684 56.87441241 66.26668415 56.9056015 67.99459648 C57.10108956 79.95415398 55.50520334 87.53022433 47.9375 97.0625 C46.9375 98.0625 46.9375 98.0625 43.12109375 98.16015625 C41.53903318 98.15348089 39.95698841 98.14151875 38.375 98.125 C37.56869141 98.12048828 36.76238281 98.11597656 35.93164062 98.11132812 C33.93356244 98.09950518 31.93552217 98.08156914 29.9375 98.0625 C29.834375 98.84625 29.73125 99.63 29.625 100.4375 C28.9375 103.0625 28.9375 103.0625 25.9375 105.0625 C23.07511516 104.84782114 21.41991869 104.4284728 19.125 102.6875 C17.9375 101.0625 17.9375 101.0625 17.9375 98.0625 C16.82890625 98.12050781 15.7203125 98.17851563 14.578125 98.23828125 C13.11462548 98.28518829 11.65108037 98.33068745 10.1875 98.375 C9.45789063 98.41689453 8.72828125 98.45878906 7.9765625 98.50195312 C4.41346396 98.58293264 2.44421858 98.51261704 -0.265625 96.10546875 C-0.85859375 95.10128906 -1.4515625 94.09710938 -2.0625 93.0625 C-2.47404831 92.52634064 -2.88559662 91.99018127 -3.30961609 91.43777466 C-8.64374547 83.69106176 -7.76777467 74.82423426 -7.69140625 65.82421875 C-7.69223593 64.05304316 -7.69469905 62.28186765 -7.69871521 60.51069641 C-7.70156224 56.81475409 -7.68697229 53.11942152 -7.65942383 49.42358398 C-7.62521724 44.6876569 -7.63141088 39.95281028 -7.6500864 35.21683025 C-7.66065027 31.56650273 -7.65172633 27.91642692 -7.63670158 24.26612282 C-7.63152319 22.51942505 -7.63199743 20.77270097 -7.63824654 19.0260067 C-7.64369647 16.58927049 -7.62333764 14.15408833 -7.59594727 11.7175293 C-7.60247314 10.99799072 -7.60899902 10.27845215 -7.61572266 9.53710938 C-7.55099913 6.15137973 -7.26586681 4.33571165 -5.2205658 1.58796692 C-3.0625 0.0625 -3.0625 0.0625 0 0 Z " fill="#FAFAFA" transform="translate(50.0625,25.9375)"/>
<path d="M0 0 C14.15463379 11.02719885 26.54636079 27.76285472 29 46 C30.78051394 64.60729802 25.81538828 82.25373002 13.87109375 96.84375 C1.48808233 111.1139427 -15.0957327 120.34708502 -34.08203125 122.3203125 C-51.10701767 122.95009005 -67.33991401 116.49567236 -80.7421875 106.26171875 C-82 105 -82 105 -82 103 C-83.32 102.34 -84.64 101.68 -86 101 C-86 100.34 -86 99.68 -86 99 C-86.66 99 -87.32 99 -88 99 C-89.54604999 96.94669981 -90.94229339 94.91736149 -92.3125 92.75 C-92.71476807 92.11610352 -93.11703613 91.48220703 -93.53149414 90.82910156 C-103.05119824 75.46396513 -106.64212775 58.62266768 -102.92138672 40.83300781 C-99.97025865 28.51033583 -93.92921288 17.08450354 -85 8 C-84.01 7.67 -83.02 7.34 -82 7 C-82 6.34 -82 5.68 -82 5 C-58.44090049 -15.22329781 -25.66396204 -17.60475131 0 0 Z M-87 13 C-92.64946078 20.23396446 -97.2588511 28.21620795 -100 37 C-100.22300781 37.66515625 -100.44601563 38.3303125 -100.67578125 39.015625 C-105.22043848 55.21562763 -101.39693381 72.80780037 -93.62109375 87.29296875 C-84.33842975 102.79389923 -70.56128892 112.45466337 -53.5625 118 C-37.07850054 121.85372536 -19.94823585 118.25915436 -5 111 C-1.75979795 108.8929585 1.11290338 106.55981441 4 104 C4.81339844 103.38125 5.62679687 102.7625 6.46484375 102.125 C16.89711344 93.38053973 23.73966866 79.27275819 26 66 C27.7211718 45.76330817 24.37371421 29.61964773 11.8125 13.3125 C1.05163296 0.65584263 -14.49906689 -7.44701545 -31 -9 C-52.64931388 -10.52948539 -72.50826118 -3.69119421 -87 13 Z " fill="#D6D6D6" transform="translate(112,20)"/>
<path d="M0 0 C4.29 0 8.58 0 13 0 C13.09045709 7.99745081 13.16380494 15.9945023 13.20724869 23.99232769 C13.22810212 27.70626049 13.25637755 31.41982441 13.30175781 35.13354492 C13.34529746 38.71917648 13.369154 42.3044538 13.37950897 45.89032936 C13.38688594 47.25667712 13.40129181 48.62300602 13.42292023 49.9892025 C13.45205572 51.90626405 13.45363476 53.82368391 13.45410156 55.7409668 C13.46298401 56.83128708 13.47186646 57.92160736 13.48101807 59.04496765 C12.88356698 62.71528151 11.59125207 64.37963044 9 67 C6.5 67.6875 6.5 67.6875 4 67 C-0.69385057 62.21691682 -0.45479106 57.50535456 -0.45318604 51.01980591 C-0.43254089 49.71647308 -0.41189575 48.41314026 -0.390625 47.0703125 C-0.38315607 45.71126135 -0.37746622 44.35219936 -0.37347412 42.99313354 C-0.35826868 39.43202499 -0.31903264 35.87157858 -0.2746582 32.31072998 C-0.23359436 28.67078608 -0.21543954 25.03073423 -0.1953125 21.390625 C-0.15253188 14.26012136 -0.08222502 7.13017383 0 0 Z " fill="#0D0D0D" transform="translate(55,45)"/>
<path d="M0 0 C3.96 0 7.92 0 12 0 C12.0904616 7.8670281 12.16380796 15.7337707 12.20724869 23.60117626 C12.22810093 27.25457815 12.25637408 30.90760497 12.30175781 34.56079102 C12.34530186 38.08806849 12.36915489 41.6149858 12.37950897 45.14251137 C12.39046874 47.13949599 12.42168148 49.13633624 12.45318604 51.13310242 C12.45348816 52.35399063 12.45379028 53.57487885 12.45410156 54.83276367 C12.46298401 55.90531906 12.47186646 56.97787445 12.48101807 58.08293152 C11.88799664 61.67922908 10.45431618 63.36776242 8 66 C5.07691395 65.6839907 3.45316358 65.45917262 1.35331726 63.33148193 C-0.37617944 60.35192169 -0.36187719 58.38285387 -0.34057617 54.94628906 C-0.34034958 53.72532532 -0.34012299 52.50436157 -0.33988953 51.24639893 C-0.31666374 49.27591583 -0.31666374 49.27591583 -0.29296875 47.265625 C-0.28737064 45.90371162 -0.28310155 44.54179219 -0.28010559 43.17987061 C-0.26867361 39.60242921 -0.23922117 36.02535558 -0.20599365 32.44805908 C-0.17525691 28.79485041 -0.16159259 25.14158207 -0.14648438 21.48828125 C-0.11434932 14.32533409 -0.06159549 7.16276551 0 0 Z " fill="#000000" transform="translate(81,46)"/>
<path d="M0 0 C0.66 0.33 1.32 0.66 2 1 C1.443125 1.49886719 0.88625 1.99773438 0.3125 2.51171875 C-8.70394735 10.99509911 -15.19329638 21.19921877 -19 33 C-19.22429688 33.66644531 -19.44859375 34.33289062 -19.6796875 35.01953125 C-24.20560201 51.23222502 -20.39986569 68.78893798 -12.625 83.2890625 C-4.54363985 96.77094697 6.22279783 104.17493015 20 111 C17.47381765 111.93283339 16.28850405 112.09862128 13.703125 111.21484375 C8.16094447 108.32902682 2.55928063 105.34277848 -2 101 C-2 100.34 -2 99.68 -2 99 C-3.32 98.34 -4.64 97.68 -6 97 C-6 96.34 -6 95.68 -6 95 C-6.66 95 -7.32 95 -8 95 C-9.54604999 92.94669981 -10.94229339 90.91736149 -12.3125 88.75 C-12.71476807 88.11610352 -13.11703613 87.48220703 -13.53149414 86.82910156 C-23.05119824 71.46396513 -26.64212775 54.62266768 -22.92138672 36.83300781 C-19.97025865 24.51033583 -13.92921288 13.08450354 -5 4 C-4.01 3.67 -3.02 3.34 -2 3 C-2 2.34 -2 1.68 -2 1 C-1.34 0.67 -0.68 0.34 0 0 Z " fill="#D9D9D9" transform="translate(32,24)"/>
<path d="M0 0 C-2.26132645 1.39715822 -3.517515 2.05313334 -6.19921875 1.7578125 C-7.02035156 1.54898437 -7.84148437 1.34015625 -8.6875 1.125 C-27.12885084 -2.6124471 -42.99960816 1.40449175 -59 11 C-59.99 11.66 -60.98 12.32 -62 13 C-62 12.01 -62 11.02 -62 10 C-54.83806327 3.83196469 -45.90528695 0.71722701 -37 -2 C-35.79537109 -2.37125 -35.79537109 -2.37125 -34.56640625 -2.75 C-22.5845885 -5.91583808 -11.51174257 -3.56657031 0 0 Z " fill="#D2D2D2" transform="translate(96,12)"/>
<path d="M0 0 C0 0.66 0 1.32 0 2 C-18.24755821 10.18551813 -33.8908931 12.31591712 -53 6 C-53.66 5.34 -54.32 4.68 -55 4 C-51.48074169 2.8269139 -50.77211519 3.25429424 -47.375 4.4375 C-33.14513861 8.55170396 -17.75149343 6.12612511 -4.21484375 0.8046875 C-2 0 -2 0 0 0 Z " fill="#C4C4C4" transform="translate(105,132)"/>
<path d="M0 0 C0.66 0.33 1.32 0.66 2 1 C1.443125 1.49886719 0.88625 1.99773438 0.3125 2.51171875 C-9.44509065 11.69242481 -15.33114507 22.54223805 -20 35 C-20.33 35 -20.66 35 -21 35 C-20.77101233 23.32162858 -12.98364277 12.12248873 -5 4 C-4.01 3.67 -3.02 3.34 -2 3 C-2 2.34 -2 1.68 -2 1 C-1.34 0.67 -0.68 0.34 0 0 Z " fill="#DCDCDC" transform="translate(32,24)"/>
<path d="M0 0 C10.08869495 -0.61246715 18.47189659 1.04800116 28 4 C24.66818425 6.06218619 22.84851063 6.09260086 19.0625 5.25 C14.6565522 4.33308654 10.26342637 3.54555441 5.8125 2.875 C4.70519531 2.70742187 3.59789063 2.53984375 2.45703125 2.3671875 C1.64621094 2.24601563 0.83539063 2.12484375 0 2 C0 1.34 0 0.68 0 0 Z " fill="#B8B8B8" transform="translate(68,8)"/>
<path d="M0 0 C7.9197687 7.28080647 10.00457689 17.79576311 12 28 C11.01 28.33 10.02 28.66 9 29 C8.76925781 27.97261719 8.53851563 26.94523437 8.30078125 25.88671875 C6.51209045 18.19832325 4.51413237 11.13962538 0.953125 4.0390625 C0 2 0 2 0 0 Z " fill="#E5E5E5" transform="translate(129,40)"/>
<path d="M0 0 C3.81183269 0.55408426 6.20019722 1.56504187 9.3125 3.8125 C13.39584723 6.6557703 17.50441901 8.87481626 22 11 C19.47381765 11.93283339 18.28850405 12.09862128 15.703125 11.21484375 C10.09878234 8.29665896 4.75805206 5.19984483 0 1 C0 0.67 0 0.34 0 0 Z " fill="#D9D9D9" transform="translate(30,124)"/>
<path d="M0 0 C0.66 0 1.32 0 2 0 C2 4.95 2 9.9 2 15 C1.01 14.34 0.02 13.68 -1 13 C-1.328125 10.21484375 -1.328125 10.21484375 -1.25 6.9375 C-1.23453125 5.85339844 -1.2190625 4.76929687 -1.203125 3.65234375 C-1 1 -1 1 0 0 Z " fill="#CBCBCB" transform="translate(139,68)"/>
<path d="M0 0 C2.8203125 0.4609375 2.8203125 0.4609375 6.125 1.375 C7.22070312 1.67148438 8.31640625 1.96796875 9.4453125 2.2734375 C10.28835937 2.51320312 11.13140625 2.75296875 12 3 C11.67 3.66 11.34 4.32 11 5 C6.28596212 4.52060632 2.33420699 4.03165952 -2 2 C-1.34 1.34 -0.68 0.68 0 0 Z " fill="#C5C5C5" transform="translate(52,135)"/>
<path d="M0 0 C5.77378925 0.4811491 9.95859836 2.18467181 15 5 C14.01 5.66 13.02 6.32 12 7 C8 5 4 3 0 1 C0 0.67 0 0.34 0 0 Z " fill="#CFCFCF" transform="translate(94,13)"/>
<path d="M0 0 C0.66 0.66 1.32 1.32 2 2 C1.6875 5.25 1.6875 5.25 1 9 C0.814375 10.134375 0.62875 11.26875 0.4375 12.4375 C0.2209375 13.7059375 0.2209375 13.7059375 0 15 C-0.66 15 -1.32 15 -2 15 C-1.85816304 13.24967156 -1.71136571 11.49974466 -1.5625 9.75 C-1.48128906 8.77546875 -1.40007813 7.8009375 -1.31640625 6.796875 C-1.04925416 4.43538247 -0.64628032 2.28098935 0 0 Z " fill="#CCCCCC" transform="translate(10,57)"/>
<path d="M0 0 C1.57554035 2.88628401 2.46276373 5.53342384 3.125 8.75 C3.29257813 9.54921875 3.46015625 10.3484375 3.6328125 11.171875 C3.81457031 12.07679687 3.81457031 12.07679687 4 13 C3.01 13.33 2.02 13.66 1 14 C0.63794536 12.04310963 0.28558579 10.08442332 -0.0625 8.125 C-0.25972656 7.03445312 -0.45695313 5.94390625 -0.66015625 4.8203125 C-1 2 -1 2 0 0 Z " fill="#DCDCDC" transform="translate(137,55)"/>
<path d="M0 0 C1.00740234 0.13148437 1.00740234 0.13148437 2.03515625 0.265625 C3.9375 0.75 3.9375 0.75 6.9375 2.75 C3.40655698 3.95220203 0.80851018 3.54532349 -2.8125 2.8125 C-3.79734375 2.61785156 -4.7821875 2.42320313 -5.796875 2.22265625 C-6.54453125 2.06667969 -7.2921875 1.91070312 -8.0625 1.75 C-5.13878594 0.04940569 -3.35048393 -0.49062963 0 0 Z " fill="#C0C0C0" transform="translate(89.0625,10.25)"/>
<path d="M0 0 C0 0.66 0 1.32 0 2 C-1.8984375 3.5078125 -1.8984375 3.5078125 -4.375 5.125 C-5.59316406 5.93324219 -5.59316406 5.93324219 -6.8359375 6.7578125 C-9 8 -9 8 -11 8 C-11 7.34 -11 6.68 -11 6 C-9.1015625 4.4921875 -9.1015625 4.4921875 -6.625 2.875 C-5.81289062 2.33617188 -5.00078125 1.79734375 -4.1640625 1.2421875 C-2 0 -2 0 0 0 Z " fill="#DBDBDB" transform="translate(116,125)"/>
<path d="M0 0 C1 3 1 3 0.22265625 4.82421875 C-0.8515625 6.54947917 -1.92578125 8.27473958 -3 10 C-3.99 10 -4.98 10 -6 10 C-4.02 6.7 -2.04 3.4 0 0 Z " fill="#E4E4E4" transform="translate(133,101)"/>
<path d="M0 0 C1.12894876 0.93274109 2.25300876 1.87140122 3.375 2.8125 C4.00148438 3.33457031 4.62796875 3.85664062 5.2734375 4.39453125 C7 6 7 6 9 9 C6.5625 8.1875 6.5625 8.1875 4 7 C3.67 6.01 3.34 5.02 3 4 C2.34 4 1.68 4 1 4 C0.67 2.68 0.34 1.36 0 0 Z " fill="#E6E6E6" transform="translate(23,115)"/>
<path d="M0 0 C0.66 0.33 1.32 0.66 2 1 C-0.31 3.31 -2.62 5.62 -5 8 C-5.33 7.01 -5.66 6.02 -6 5 C-4.68 4.34 -3.36 3.68 -2 3 C-2 2.34 -2 1.68 -2 1 C-1.34 0.67 -0.68 0.34 0 0 Z " fill="#E7E7E7" transform="translate(32,24)"/>
<path d="M0 0 C4.31392226 0.4793247 6.16569547 1.7457985 9 5 C8.01 5.495 8.01 5.495 7 6 C5.83054208 5.19152271 4.66449539 4.37810888 3.5 3.5625 C2.8503125 3.11003906 2.200625 2.65757813 1.53125 2.19140625 C1.0259375 1.79824219 0.520625 1.40507813 0 1 C0 0.67 0 0.34 0 0 Z " fill="#CDCDCD" transform="translate(30,124)"/>
</svg>
